<?xml version="1.0" standalone="no"?>
<!DOCTYPE svg PUBLIC "-//W3C//DTD SVG 1.1//EN" "http://www.w3.org/Graphics/SVG/1.1/DTD/svg11.dtd" >
<svg xmlns="http://www.w3.org/2000/svg" xmlns:xlink="http://www.w3.org/1999/xlink" version="1.1">
<metadata>
Created by FontForge 20170812 at Tue Jan  1 08:15:36 2019
 By root
Copyright (c) 2018 by Suzuran. All rights reserved.
</metadata>
<defs>
<font id="YellowPen" horiz-adv-x="268" >
  <font-face 
    font-family="Yellow Pen"
    font-weight="400"
    font-stretch="normal"
    units-per-em="1000"
    panose-1="0 0 0 0 0 0 0 0 0 0"
    ascent="800"
    descent="-200"
    x-height="355"
    cap-height="756.5"
    bbox="-257.286 -150.282 1098 775.523"
    underline-thickness="50"
    underline-position="-100"
    unicode-range="U+0020-20AC"
  />
    <missing-glyph />
    <glyph glyph-name="space" unicode=" " horiz-adv-x="313" 
 />
    <glyph glyph-name="E" unicode="E" horiz-adv-x="559" 
d="M387 312q13 7 21.5 6.5t11.5 -5t1.5 -11t-8.5 -11.5q-21 -20 -42 -45t-39 -52t-31.5 -55t-20.5 -55q-4 -11 -4.5 -19.5t3.5 -11.5t12.5 0.5t22.5 14.5q25 19 57.5 52.5t67 69.5t67 68t58.5 49q10 6 15.5 5t7 -4.5t-0.5 -9.5t-6 -10q-21 -19 -51.5 -49.5t-63 -63.5
t-63 -64t-51.5 -50q-20 -17 -38.5 -30.5t-38.5 -20.5q-16 -4 -27.5 3.5t-13.5 25.5q-1 11 1 23.5t5 23.5q7 25 19 49.5t24.5 46t25.5 40t23 33.5q-20 -11 -43 -23.5t-48 -25.5t-50.5 -25t-50.5 -20t-51.5 -11.5t-47.5 2.5t-32.5 24t-7.5 53q10 60 41.5 118t78 111.5
t104 100.5t118 85.5t120 66.5t110.5 43q17 5 38.5 9t42 5t38.5 -2t28 -13t9 -27.5t-17 -44.5q-57 -96 -138.5 -171t-169.5 -132q-14 -8 -24.5 -9.5t-14.5 2.5t1 12t22 20q39 27 81 61t81 71.5t71 76t52 73.5q11 18 11 28t-8 13t-23.5 0.5t-36.5 -8.5q-38 -11 -84.5 -32.5
t-96 -51.5t-99.5 -67.5t-95 -79t-83.5 -87t-63.5 -90.5q-16 -28 -24.5 -52.5t-5.5 -40.5t19.5 -21.5t51.5 3.5q34 8 66 21.5t63 29.5l62 32t62 30z" />
    <glyph glyph-name="F" unicode="F" horiz-adv-x="675" 
d="M398 315q57 -3 111 -3t109 -2q13 0 18 -4t4 -8.5t-8 -8t-17 -3.5q-51 0 -101 -0.5t-102 1.5q-11 0 -21.5 -1.5t-17.5 -9.5q-17 -19 -43.5 -55.5t-59 -77.5t-70.5 -80.5t-78 -64.5q-17 -10 -33.5 -16t-34.5 -5q-35 3 -45 25t-5 50q10 57 40.5 98t72.5 70.5t91.5 49
t97.5 32.5q65 88 123 160.5t125 130.5q-50 6 -108 -8t-110.5 -43.5t-93 -70.5t-55.5 -89q-3 -10 -5 -19.5t-2 -20.5q0 -5 -4.5 -8.5t-9.5 -3.5t-9.5 2.5t-5.5 9.5q-3 23 7 52q25 70 73.5 117t108.5 74.5t125 39.5t124 12q28 23 61.5 46.5t68.5 43t71 32t70 12.5
q19 0 27.5 -7t9.5 -17.5t-4.5 -21.5t-15.5 -19q-24 -19 -50 -31.5t-53 -22.5t-54 -18t-54 -17q-18 -7 -42 -27.5t-50 -49t-53 -61.5t-51 -64t-43 -58t-29 -42zM286 268q-42 -8 -83 -26t-76.5 -45t-61 -62t-35.5 -76q-3 -10 -2 -17.5t6 -10.5t16.5 0.5t29.5 14.5q28 18 60 50
t61 65.5t52 63.5t33 43zM858 732q-14 1 -37.5 -6t-49 -19t-49 -26t-36.5 -25q19 6 42 13.5t46 17.5t45 21t39 24z" />
    <glyph glyph-name="G" unicode="G" horiz-adv-x="586" 
d="M519 693q-69 -39 -136 -97t-125.5 -125.5t-106.5 -139.5t-78 -139q-38 -85 -3 -97.5t128 47.5q29 20 54 37t49 34q47 32 94.5 69t75.5 74q-34 -8 -58 -18.5t-50 -27.5q-9 -6 -16 -5t-10.5 6.5t-2.5 13t9 13.5q19 15 49 27t63 20t64 10.5t52 -3.5q8 -4 7 -13t-8 -9
q-37 -29 -74 -72t-68 -91.5t-53.5 -99t-31.5 -93.5q-3 -15 -11 -20.5t-15.5 -3t-13 10.5t-3.5 20q4 32 13.5 60t20.5 53t23.5 47t22.5 42q-47 -38 -97.5 -70t-100.5 -64q-63 -41 -103.5 -45.5t-60.5 16.5t-19.5 61.5t20.5 90.5q16 39 43.5 86t64.5 96t81 98t91.5 93t97 80
t97.5 59q37 19 72.5 22.5t58 -8t25.5 -38t-25 -67.5q-54 -79 -127.5 -148t-147.5 -117q-13 -6 -19.5 -5t-7 6t4 12t13.5 13q83 60 146 119.5t110 126.5q20 30 20.5 48t-12 24.5t-36 1.5t-50.5 -21z" />
    <glyph glyph-name="H" unicode="H" horiz-adv-x="704" 
d="M616 306q-32 -14 -73.5 -21.5t-84.5 -13t-83.5 -10t-70.5 -12.5q-29 -36 -59.5 -78t-60.5 -84t-58.5 -80.5t-52.5 -68.5q-7 -9 -17.5 -9.5t-19 4t-12 13t3.5 19.5q56 87 113.5 169.5t116 164.5t118 165.5t121.5 172.5q21 30 27.5 47.5t1 25t-20.5 7t-37 -6.5
q-72 -17 -138 -48t-121.5 -75t-97.5 -100.5t-65 -124.5q-6 -20 -11 -40.5t-6.5 -40t1.5 -36.5t11 -29q7 -9 -1.5 -17t-16.5 -2q-14 10 -19.5 29.5t-4.5 43.5t6.5 50t12.5 50q29 91 87 159.5t133 117.5q26 17 58 33.5t66.5 30.5t70 24t69.5 15q27 4 46.5 -4t29 -23.5t7.5 -38
t-18 -47.5q-32 -50 -61.5 -93.5t-59 -85l-59 -83t-60.5 -88.5q34 4 83.5 9t98.5 13t88 21.5t52 33.5q11 18 27 45.5t33.5 56t34 52t28.5 34.5q7 6 14.5 5.5t12 -5t5.5 -11t-4 -12.5q-13 -11 -25.5 -26.5t-23.5 -32.5q-30 -45 -58 -94t-54 -98.5t-51.5 -98.5t-52.5 -95
q-5 -7 -12 -9t-12.5 1t-7 10t3.5 18q24 51 56 104.5t53 97.5z" />
    <glyph glyph-name="I" unicode="I" horiz-adv-x="337" 
d="M433 690q-38 -24 -77 -43t-77.5 -37t-74.5 -37t-69 -44q-26 -20 -47 -44t-34 -51.5t-16 -57.5t6 -63q-2 -24 -20 -14q-9 5 -12 14.5t-4 20.5q-2 40 7.5 74.5t28 64t44 54t55.5 44.5q43 28 85 48.5t82.5 39.5t80 39.5t78.5 50.5q5 4 10.5 7.5t13.5 -1.5t9 -11.5t-2 -14.5
q-35 -80 -74.5 -166t-85 -170.5t-97.5 -165t-112 -147.5q-21 -24 -41.5 -42.5t-38.5 -26.5q-17 -9 -37 -5q-12 3 -14.5 12.5t14.5 22.5q37 32 77.5 79.5t81.5 103.5t80 117.5t73 122.5t61.5 119t45.5 107z" />
    <glyph glyph-name="J" unicode="J" horiz-adv-x="555" 
d="M696 720q15 2 34 2.5t35.5 -2.5t27.5 -10.5t11 -21.5q0 -10 -3.5 -17t-8.5 -9t-11 2t-11 16q-2 5 -15.5 7.5t-29 2.5t-28.5 -2t-14 -5q-30 -68 -61 -134t-65 -129.5t-74 -124t-88 -117.5q-24 -29 -52.5 -57.5t-61 -52t-68 -39t-73.5 -18.5q-15 -1 -29 0q-47 6 -71.5 33.5
t-32.5 64.5t-1.5 78t22.5 73q6 11 13.5 16t12.5 3.5t5.5 -9t-8.5 -22.5q-9 -23 -15 -52.5t-4 -57t15.5 -50t43.5 -30.5q25 -7 53.5 2t56 25t51.5 35.5t40 34.5q59 55 106.5 118.5t88 131.5t75 138t66.5 139q-162 -20 -311 -78.5t-279 -155.5q-9 -7 -18 -7.5t-13.5 3.5
t-2 12.5t17.5 19.5q65 48 139 87t151.5 68t156.5 49.5t154 32.5q18 1 25 19q6 13 15 18.5t17 4t13 -10.5t3 -24z" />
    <glyph glyph-name="K" unicode="K" horiz-adv-x="741" 
d="M37 293q6 -5 9.5 -10.5t-1.5 -12.5q-5 -8 -12.5 -8.5t-14.5 2.5q-15 6 -19 18.5t-2 26t8 27t13 22.5q33 48 69.5 87.5t78.5 75.5q40 34 88.5 69t100 66t104 55t100.5 37q30 8 58 9.5t50 -10.5q19 -11 23 -28t-1.5 -36.5t-16 -38.5t-20.5 -35q-38 -60 -88.5 -116
t-105.5 -110t-109 -108t-97 -111q114 76 236.5 141t247.5 122q12 5 18.5 3.5t8 -7t-2 -12t-12.5 -10.5q-57 -31 -108 -59t-100.5 -56.5t-99 -59.5t-101.5 -68q23 -16 65 -31t89 -27.5t92.5 -21.5t74.5 -13q16 -1 23.5 -7t6.5 -12t-9 -10.5t-24 -3.5q-95 10 -189.5 37
t-173.5 57q-24 10 -47.5 -4.5t-44 -37.5t-37 -48.5t-26.5 -38.5q-9 -12 -21.5 -16.5t-22 -0.5t-12.5 15.5t6 30.5q49 87 113 163t133.5 146.5t139.5 140t131 144.5q48 60 43 85.5t-75 8.5q-50 -12 -100.5 -34t-98.5 -50.5t-93 -60.5t-82 -63q-47 -38 -91 -82t-71 -97
q-5 -9 -6 -18.5t5 -15.5z" />
    <glyph glyph-name="a" unicode="a" horiz-adv-x="299" 
d="M-23 173q-17 -8 -29.5 0t-10.5 26q1 26 18.5 54.5t44.5 52.5q34 30 73.5 46.5t70.5 6.5q8 -2 14 -3t14 3q14 12 28 -2q8 -6 5 -13.5t-8 -15.5q-9 -18 -19.5 -31.5t-19.5 -26t-15.5 -25t-8.5 -27.5q-3 -20 7.5 -21.5t29 8t40.5 26.5t41.5 34.5t34 31t16.5 16.5
q9 10 15.5 12t9.5 -1t1.5 -10t-8.5 -15q-14 -15 -32.5 -33t-39 -36t-42.5 -35t-42 -29q-37 -23 -56.5 -16t-24 27.5t5 48t29.5 46.5q-14 -9 -31.5 -23t-36.5 -28.5t-38.5 -27.5t-35.5 -20zM126 323q-17 4 -42 -5.5t-48.5 -26.5t-40.5 -39.5t-18 -43.5q35 27 76 56.5t73 58.5
z" />
    <glyph glyph-name="b" unicode="b" horiz-adv-x="297" 
d="M228 420q16 2 26.5 -8t5.5 -27q-9 -29 -24 -52t-32 -43q25 2 56.5 3t49.5 4q5 1 7 -1.5t2 -6t-1.5 -6.5t-4.5 -4q-12 -4 -31.5 -6t-40 -3.5t-37 -3.5t-21.5 -5q-11 -7 -28.5 -21.5t-39.5 -29.5t-46.5 -27.5t-48.5 -15.5q-10 -2 -21.5 -0.5t-21.5 3.5q-8 -2 -14.5 -6.5
t-15.5 3.5q-9 6 -6.5 14.5t5.5 16.5q26 60 63.5 120.5t76 116.5t73.5 105.5t57 87.5q6 10 14.5 11.5t15.5 -1.5t10 -9.5t-2 -12.5q-10 -20 -32.5 -53t-49.5 -72t-55 -79.5t-47 -74.5q16 12 35 25t39.5 25t42 21t41.5 12zM231 390q-18 -3 -48 -19t-60.5 -37t-56.5 -43
t-36 -36q17 8 36.5 13t36.5 9t30.5 7t19.5 7q23 17 43.5 44t34.5 55zM0 194q9 -2 28 4t39 15.5t37.5 21t24.5 21.5q-18 -3 -39 -9t-39.5 -14t-32.5 -17.5t-18 -21.5z" />
    <glyph glyph-name="c" unicode="c" horiz-adv-x="288" 
d="M291 303q17 13 23.5 5t-10.5 -25q-52 -38 -111.5 -75.5t-120.5 -60.5q-28 -10 -52 -9t-39.5 12t-21 32.5t3.5 53.5q9 29 29 57.5t46 50.5t55 34.5t55 9.5q27 -3 39.5 -25t0.5 -47q-6 -15 -12 -7.5t-9 18.5q-3 14 -10.5 20.5t-16.5 6.5q-10 0 -26 -9.5t-33.5 -24.5
t-34 -34t-28.5 -37.5t-16.5 -35.5t2.5 -27q6 -11 28 -8.5t51 13.5t62.5 27.5t63 33t52 30.5t30.5 21z" />
    <glyph glyph-name="d" unicode="d" horiz-adv-x="335" 
d="M321 298q5 4 8 7t8 6q8 5 11.5 -3t1.5 -13q-1 -4 -3.5 -6.5l-4.5 -4.5q-31 -28 -60 -50.5t-64 -39.5q-26 -12 -37 -1.5t-12.5 31.5t4.5 45.5t13 40.5q-39 -42 -74 -85t-82 -75q-30 -17 -51 -4.5t-21 45.5q0 32 11 59.5t27 50.5t36.5 41t44.5 28t50.5 10.5t54.5 -12.5
q54 62 100 136.5t82 146.5q3 5 6 9t9 2q13 -3 18 -8.5t5.5 -12t-2 -12.5t-5.5 -11q-16 -26 -40 -65.5t-49 -84t-47.5 -88.5t-34.5 -80q-7 -21 -11 -37t-1.5 -23.5t13.5 -6t33 16.5q16 10 32.5 22.5t30.5 25.5zM7 194q12 4 35 23.5t46 43t41.5 45.5t21.5 33q-24 6 -50 -5.5
t-48 -33.5t-35 -50t-11 -56z" />
    <glyph glyph-name="e" unicode="e" horiz-adv-x="237" 
d="M109 215q19 9 38 21t36 24.5t31.5 23.5t23.5 19q10 9 16.5 9.5t9 -3.5t0 -10.5t-9.5 -12.5q-14 -12 -31.5 -26.5t-37.5 -29.5t-41 -29t-42 -24q-18 -10 -40.5 -14t-42.5 -0.5t-34 17t-14 39.5q0 24 8 46t21.5 41t30.5 34t36 26q13 7 27 10.5t26 1.5t19.5 -10.5t7.5 -26.5
q0 -15 -11 -31.5t-30 -32t-44 -27.5t-53 -18q1 -18 12.5 -25t26.5 -7.5t31.5 4.5t29.5 11zM68 319q-14 -11 -25 -23.5t-19 -27.5q-1 -1 -1 -2q10 0 23.5 6t26 15.5t22.5 20.5t14 20q8 16 3.5 17.5t-13.5 -3.5t-18.5 -13t-12.5 -10z" />
    <glyph glyph-name="f" unicode="f" horiz-adv-x="186" 
d="M68 312q21 -3 37.5 -4t31.5 -1t30.5 0.5t34.5 0.5q10 0 11 -8t-12 -12q-9 -4 -22.5 -6t-29 -2.5t-30.5 -0.5h-26q9 -38 6.5 -73.5t-14 -68.5t-30.5 -63t-42 -56q-11 -12 -27 -29t-34.5 -29.5t-37 -16.5t-34.5 8q-9 7 -13.5 18.5t-6 24.5t-0.5 26.5t3 24.5q8 33 22.5 65
t25.5 54q39 75 94 149t113 135q8 9 18 17t20 12t18 2.5t13 -11.5q3 -6 0 -15.5t-14 -18.5q-8 -7 -22.5 -22t-30 -33t-29.5 -36t-23 -31zM46 286q-15 -15 -33 -42t-35 -58.5t-31.5 -61.5t-22.5 -51q-26 -74 -6 -79t67 46q24 27 43.5 59.5t29.5 65.5t8.5 64.5t-20.5 56.5z" />
    <glyph glyph-name="g" unicode="g" horiz-adv-x="309" 
d="M304 288q11 7 18 7t9.5 -3.5t-1.5 -10t-15 -13.5q-27 -20 -54 -37t-56 -36q-20 -14 -42 -27t-38 -31q-7 -7 -12.5 -15t-10.5 -17q-19 -32 -41 -70t-47.5 -74t-54.5 -65.5t-62 -42.5q-21 -8 -35.5 3.5t-12.5 33.5q1 25 15 49t34 45.5t44.5 41.5t47 37t41 31t27.5 25
q10 13 21.5 32.5t21 41.5t16.5 42.5t10 35.5q-17 -13 -33 -28t-32.5 -29t-33.5 -26.5t-37 -19.5q-18 -6 -31 2.5t-15 25.5q-2 30 12.5 57t38 49t52 38t52.5 24q20 6 29 1.5t20 -21.5q3 -5 5 -5q8 -1 11.5 -4.5t5 -8.5t1 -10.5t0.5 -10.5q0 -31 -8.5 -58.5t-19.5 -53.5
q39 15 80 42.5t80 52.5zM25 59q-21 -17 -44 -35.5t-43 -39t-34.5 -44t-18.5 -49.5q14 9 35 30.5t42 47t38.5 50.5t24.5 40zM10 225q13 6 30.5 18.5t35 26.5t31 26.5t17.5 19.5q-12 3 -29 -5t-34 -21.5t-31 -31t-20 -33.5z" />
    <glyph glyph-name="h" unicode="h" horiz-adv-x="315" 
d="M197 209q29 17 58.5 43t55.5 50q20 14 26 5.5t-10 -24.5q-13 -12 -36.5 -33t-49.5 -42t-51.5 -37.5t-41.5 -19.5q-17 -3 -27.5 2t-15 14.5t-4 22t6.5 25.5q10 26 26.5 49t27.5 48q-28 -9 -54 -25t-50 -35t-45.5 -40.5t-39.5 -42.5q-5 -7 -12 -9t-13.5 0.5t-10.5 8
t-1 13.5q9 29 29.5 66t47 77.5t57 82t59.5 80.5t54 72.5t42 57.5q6 8 13 8.5t12.5 -3.5t7.5 -11.5t-3 -14.5q-22 -31 -49.5 -69.5t-57 -80t-58 -84.5t-52.5 -84q27 21 58 38.5t63 28.5q8 3 17 4t16 -1.5t11 -8t2 -16.5q-7 -30 -23.5 -56.5t-29.5 -52.5q-10 -20 -7 -25
t12 -2.5t20.5 9.5t19.5 12z" />
    <glyph glyph-name="i" unicode="i" horiz-adv-x="205" 
d="M52 202q39 25 73.5 51.5t78.5 56.5q6 5 12 6.5t9.5 -0.5t3 -7.5t-8.5 -12.5q-5 -4 -22 -18.5t-41 -33.5t-52.5 -39t-55 -34t-49 -18.5t-35.5 7.5q-19 18 -13.5 47t22 59.5t37 57.5t32.5 39q10 10 20.5 10.5t16.5 -5t5.5 -15.5t-10.5 -22q-21 -26 -39.5 -53.5t-33.5 -58.5
q-8 -18 -5 -25.5t11.5 -8t20.5 4.5t23 12zM85 428q6 5 13.5 5t14 -3t10.5 -9t3 -13q-1 -10 -11 -12t-20 1.5t-14.5 11.5t4.5 19z" />
    <glyph glyph-name="j" unicode="j" horiz-adv-x="132" 
d="M142 312q11 7 16 0t-3 -15q-21 -19 -38 -33t-34 -25.5t-35.5 -23t-42.5 -25.5q-5 -4 -12 -15.5t-16 -28.5q-13 -24 -33.5 -58t-46 -64.5t-54.5 -52.5t-59 -22q-19 1 -31 13t-10 32q3 27 24 53t49.5 49.5t57.5 43t48 31.5q14 9 27.5 30.5t25.5 46t21.5 48.5t14.5 38
q3 7 8.5 9.5t11 1t10 -6.5t4.5 -12q-2 -10 -6 -23t-9 -27t-9.5 -27t-6.5 -22q21 9 36 18t28.5 19t28 21.5t35.5 26.5zM-223 -6q18 9 37.5 26t38 36.5t34 40t26.5 37.5q-15 -6 -40 -24.5t-48 -40.5t-38 -43t-10 -32zM44 394q2 6 5.5 11.5t7.5 10.5q3 4 8 5t9 -1.5t6.5 -6.5
t-0.5 -10q-2 -6 -6 -12t-8 -11q-5 -6 -10.5 -7.5t-9 1t-5 8t2.5 12.5z" />
    <glyph glyph-name="k" unicode="k" horiz-adv-x="282" 
d="M33 274q-17 -27 -28 -56t-28 -58q-7 -12 -15 -16.5t-14.5 -2.5t-10.5 9t-3 18q4 18 19 50t37.5 71t50 82.5t57 85.5t58 79.5t52.5 65.5q9 7 17 8.5t13 -2t6 -10t-4 -13.5q-14 -20 -35.5 -51t-46.5 -67t-50 -75t-46 -73q27 9 59.5 18.5t58.5 20.5q16 7 25 6.5t11 -5.5
t-3 -12.5t-18 -14.5q-30 -16 -65.5 -25t-64.5 -21q21 -48 47.5 -57.5t55.5 1.5t58.5 34t58.5 42q10 7 16.5 7t9 -4t-1 -10.5t-12.5 -13.5q-24 -16 -48 -33t-48 -30.5t-47.5 -21t-45 -3.5t-40.5 22t-35 55z" />
    <glyph glyph-name="m" unicode="m" horiz-adv-x="512" 
d="M507 301q7 6 13 7t9 -1.5t2.5 -7.5t-5.5 -11t-19 -17t-31.5 -23.5t-37 -26t-35.5 -24.5q-20 -13 -39.5 -17t-32.5 5q-10 8 -10.5 20t4.5 24q5 11 14.5 28t20.5 34q4 6 8 11.5t7 10.5q-1 4 -12 -1.5t-28.5 -17t-39 -26.5t-43.5 -30t-41.5 -27.5t-32.5 -18.5
q-11 -5 -21 -3.5t-16 8t-7.5 16.5t4.5 21q3 7 8 15.5t7 14t-2 5.5t-18 -9q-37 -23 -71 -45.5t-68 -47.5q-12 -7 -22.5 -6.5t-18 6t-10.5 16t0 22.5q4 14 15 36t26 45t34 44t39 33q7 4 14 3.5t11.5 -4t6 -9.5t-2.5 -12q-7 -9 -21.5 -24.5t-29.5 -34.5t-27.5 -39.5
t-16.5 -37.5q47 27 96.5 59.5t93.5 54.5q7 4 14.5 2.5t12.5 -6t6 -11.5t-4 -14q-7 -15 -14.5 -28t-15.5 -25q22 10 48.5 26t54 33.5t55 32.5t53.5 24q22 7 34 -6t6 -33q-1 -3 -7 -13t-14 -22.5t-15.5 -26t-11 -23t-1 -12.5t14.5 5q11 7 26.5 18t31.5 22.5t30 22z" />
    <glyph glyph-name="l" unicode="l" horiz-adv-x="165" 
d="M37 204q13 8 30.5 21.5t35.5 28t34.5 28t28.5 21.5q8 6 13 5.5t6.5 -3.5t0 -8t-7.5 -9q-11 -8 -34 -28.5t-49.5 -42t-52 -39t-40.5 -20.5q-19 -3 -29 6q-12 11 -13 26.5t3.5 32t12 32.5t12.5 27q23 51 51.5 102t58 97.5t57.5 87t51 69.5q6 8 13.5 8.5t12.5 -3.5t7 -11.5
t-2 -15.5q-14 -22 -40 -60t-55.5 -84.5t-59 -97.5t-51.5 -98q-4 -8 -11.5 -25t-10.5 -31.5t2 -21t26 5.5z" />
    <glyph glyph-name="n" unicode="n" horiz-adv-x="378" 
d="M19 191q-17 -8 -29.5 -4t-19 14.5t-6.5 25t7 27.5q17 33 38 64.5t35 51.5q4 6 12 7t14.5 -1t10.5 -7t1 -12q-7 -13 -18 -29.5t-22.5 -33t-21 -32t-14.5 -26.5q-3 -9 6.5 -2.5t27.5 20.5t41 32.5t48 35.5t48.5 27.5t41.5 9.5q19 -2 24 -16t5 -32t-1 -36t5 -26
q6 -7 19.5 -4t31 12t37.5 22t39 26q13 9 19 0t-6 -18q-28 -22 -54.5 -40t-56.5 -30q-28 -11 -45.5 -6t-24.5 34q-4 18 -2.5 35t-0.5 28t-11 12.5t-33 -11.5q-18 -11 -36.5 -27.5t-37.5 -34t-37 -33t-34 -23.5z" />
    <glyph glyph-name="o" unicode="o" 
d="M119 267q-20 20 -25.5 38t12.5 41q6 8 15.5 17t20 15t21.5 7.5t20 -5.5q10 -9 12 -20.5t-1.5 -24t-9.5 -24.5t-10 -21q31 -8 54.5 -1t43.5 13q12 4 15.5 -5.5t-9.5 -18.5q-7 -5 -21 -9t-32 -6.5t-36.5 -3.5t-34.5 1q-1 0 -1 -0.5t-1 -0.5h-1q-12 -15 -27.5 -30t-32 -28
t-34 -22.5t-34.5 -12.5q-19 -3 -31 3.5t-18.5 18.5t-7.5 27t3 29q10 35 32 62q12 15 26.5 27t29.5 20q9 5 18 4.5t14 -4.5t5 -10t-7 -12q-17 -16 -38 -35.5t-32 -45.5q-21 -50 7 -47q12 1 25.5 9t26.5 17.5t24.5 20t18.5 17.5zM163 348q-44 -24 -23 -46q7 7 14 20t9 26z" />
    <glyph glyph-name="p" unicode="p" horiz-adv-x="301" 
d="M234 316q17 1 34 1.5t33 -1.5q10 0 14.5 -5t4 -10.5t-5.5 -9.5t-14 -3q-7 0 -19 0.5t-23.5 0.5t-20 -0.5t-8.5 -2.5q-3 -19 -25.5 -36.5t-50.5 -26t-55 -3.5t-40 31q-35 -23 -70.5 -60.5t-68 -79.5t-61 -84.5t-49.5 -76.5q-6 -11 -13.5 -13t-12.5 2.5t-5.5 14.5t6.5 22
q60 100 127 196t133 195q4 7 13 8.5t17 -1.5t11.5 -9t-2.5 -15q-4 -6 -10.5 -15t-13.5 -19t-13 -20t-9 -19q10 7 26.5 20t36 26.5t40 24t38.5 13.5q28 5 42.5 -9t13.5 -36zM109 290q20 8 43.5 13.5t44.5 7.5q3 18 -8 20.5t-27 -3.5t-32 -17.5t-21 -20.5zM103 263
q4 -10 16.5 -11.5t27 2.5t28 12t20.5 18q-5 1 -18 -1t-28 -5.5t-28 -7.5t-18 -7z" />
    <glyph glyph-name="q" unicode="q" horiz-adv-x="292" 
d="M296 309q5 3 9.5 2t7 -4.5t1.5 -8t-7 -7.5q-41 -26 -78.5 -46t-79.5 -40q14 -43 12 -90.5t-15.5 -92.5t-37 -85t-53.5 -67q-19 -16 -34 -11q-17 4 -23 21.5t-4 37.5q6 50 23.5 103t38.5 101t40.5 86.5t29.5 60.5q-12 -12 -29 -29.5t-38 -31.5q-23 -16 -46 -22
q-21 -5 -38 5t-16 31q2 29 27 66q14 21 33.5 40.5t41 35t44.5 24t44 7.5q8 -1 15 -5.5t15 -11.5q5 -5 11 -7.5t12 -5.5q11 -5 15.5 -12t-1.5 -18q-14 -26 -29 -51t-28 -51q33 17 70 37t67 39zM60 -79q20 25 37 55t27.5 63t13 67t-6.5 66q-32 -67 -57.5 -127.5t-38.5 -125.5
q-2 -11 2.5 -13.5t22.5 15.5zM151 352q-9 10 -25 5.5t-34 -17.5t-35.5 -31.5t-29.5 -37.5q-8 -12 -12.5 -22.5t-4 -16.5t7.5 -5.5t22 10.5t33.5 27.5t35 35.5t28.5 32.5t14 19.5z" />
    <glyph glyph-name="r" unicode="r" horiz-adv-x="275" 
d="M126 319q-57 -31 -101.5 -72t-82.5 -90q-6 -8 -15 -17t-20 -2q-12 7 -10 19.5t7 21.5q6 11 23 37.5t39 56.5t46 58t44 42q10 7 20 7.5t16.5 -3.5t7.5 -10.5t-7 -13.5q-4 -3 -11 -9t-14.5 -13t-13 -13.5t-6.5 -10.5q9 6 23 15t29.5 17.5t30.5 15.5t25 11q22 8 37 -4.5
t6 -32.5q-10 -23 -12.5 -35.5t0.5 -17.5t12 -3t21 8q24 11 58 32q10 6 15.5 6t7.5 -4t0 -9.5t-7 -9.5q-8 -6 -27 -18.5t-42 -22.5q-15 -7 -30 -11t-27 -3t-19 8t-7 24q0 11 3.5 21t6.5 19q8 26 -26 6z" />
    <glyph glyph-name="s" unicode="s" horiz-adv-x="252" 
d="M136 277q-8 -2 -13.5 -2.5t-10.5 -2.5q-14 -2 -26.5 -4.5t-25.5 -3.5t-25 1t-24 9q-9 6 -12.5 14.5t-3 18t4 18.5t6.5 16q15 29 41 49t57 31q10 3 20.5 3.5t18.5 -3t12 -11t2 -18.5q-2 -10 -7 -9.5t-16 3.5q-22 5 -44 -8.5t-38 -31.5q-14 -16 -16.5 -26.5t3.5 -16.5
t19.5 -8t31.5 0q16 2 31.5 5.5t28 5t20 -1.5t6.5 -15q10 4 22.5 8.5t23.5 8t20.5 5.5t13.5 3q7 1 11.5 -1.5t5.5 -6t-2.5 -7.5t-10.5 -6q-9 -2 -24 -7.5t-30 -12t-26.5 -12.5t-12.5 -10q-16 -30 -41 -67.5t-55.5 -73t-63.5 -63t-66 -37.5q-19 -6 -31.5 -1t-17.5 18
q-6 17 0 34.5t19 34.5q17 24 44.5 51t59 52t63.5 45.5t58 32.5zM-80 44q18 6 47 30t59 55t56 62t38 49q-23 -12 -55.5 -36.5t-63.5 -53.5t-54 -58t-27 -48z" />
    <glyph glyph-name="t" unicode="t" horiz-adv-x="218" 
d="M69 205q19 12 41 26.5t42 29t37.5 27.5t29.5 22q18 15 27.5 9t-7.5 -23q-26 -21 -56.5 -45.5t-61.5 -47t-61 -38.5t-54 -20q-28 -5 -37 9t-9 34q0 33 17 73.5t40.5 80t49 73t42.5 53.5q-6 -1 -22 -2t-33 -2t-31.5 -2.5t-18.5 -2.5q-13 -3 -19 0.5t-5.5 9t6.5 11t17 7.5
q17 2 37.5 3.5t39 2.5t32.5 2t19 3q1 0 14 15q10 11 23.5 27.5t27.5 33t26.5 30.5t20.5 21q10 8 22 3.5t8 -15.5q-2 -7 -12.5 -22t-24 -32.5t-26.5 -33t-19 -23.5q30 2 55 3t48 4q13 1 17.5 -2.5t3.5 -9t-7 -10t-15 -5.5q-24 -4 -52 -6t-53 -4q-15 -2 -21.5 -4t-11.5 -8
q-34 -41 -70 -93.5t-59 -103.5q-11 -23 -16.5 -41.5t-2 -28.5t18 -8t43.5 20z" />
    <glyph glyph-name="u" unicode="u" horiz-adv-x="346" 
d="M185 291q-26 -22 -53 -42l-54 -40q-11 -8 -22.5 -13.5t-22.5 -10.5q-26 -8 -41.5 4t-13.5 38q3 61 45 109q6 7 13.5 8t13 -3t8 -10.5t-0.5 -14.5t-12 -26t-15 -34.5t-4 -26.5t20 -1q50 26 92 59.5t85 62.5q6 5 13 5t12 -3t7 -8.5t-1 -11.5q-3 -8 -11 -24.5t-16 -34.5
t-12 -34.5t2 -23.5q6 -8 25.5 3t42 27.5t42 33t24.5 19.5q9 6 13.5 5t6 -4.5t0 -9t-5.5 -9.5q-10 -10 -25.5 -23.5t-32 -27t-33 -25.5t-28.5 -18q-18 -10 -33 -9.5t-25 8t-13.5 21t0.5 30.5q2 7 5.5 18t6 20t2.5 14.5t-4 2.5z" />
    <glyph glyph-name="v" unicode="v" horiz-adv-x="255" 
d="M44 230q58 37 106.5 78.5t100.5 79.5q6 4 11.5 2t8.5 -7.5t2.5 -11.5t-5.5 -10q-26 -21 -55 -45t-60 -48.5t-63 -48t-65 -41.5q-21 -12 -33.5 -7t-18 18t-4.5 30.5t7 30.5q11 30 26 57t33 53q8 9 16.5 11t14 -1.5t7 -11.5t-3.5 -18q-13 -27 -28 -50.5t-26 -48.5
q-8 -17 -4.5 -23t33.5 12z" />
    <glyph glyph-name="w" unicode="w" horiz-adv-x="446" 
d="M334 312q-13 -12 -27.5 -25t-30 -26t-31.5 -23.5t-31 -17.5q-14 -6 -28 -7t-23.5 4t-13.5 16t2 31q-15 -12 -32 -26.5t-35 -28t-36.5 -25.5t-36.5 -18q-20 -8 -33.5 3.5t-12.5 32.5q2 42 26 85.5t58 71.5q9 7 17.5 6t14 -6.5t6 -14t-6.5 -16.5q-14 -14 -29.5 -38.5
t-26.5 -47.5q-15 -33 -11 -35t33 19q13 10 29 23t32 26.5t31 26t27 21.5q26 22 37 11q9 -10 6 -18.5t-7 -18.5q-11 -29 -6.5 -37t18 -3.5t33 18.5t38.5 29.5t34 29.5t20 19t12 8t13 2.5t10 -5t3 -14.5q-1 -7 -3.5 -13.5t-4.5 -13.5q-6 -19 2.5 -24.5t22.5 -3.5t30.5 8
t25.5 11q14 6 20.5 0.5t-7.5 -16.5q-16 -12 -39.5 -21t-44.5 -9t-34.5 11t-9.5 39z" />
    <glyph glyph-name="x" unicode="x" horiz-adv-x="217" 
d="M17 231q-12 -14 -25 -30t-23 -28q-9 -11 -17.5 -5t-3.5 16q14 23 29.5 39.5t23.5 29.5q6 9 7.5 10t0.5 6q-1 4 -3.5 14.5t-5 22.5t-4.5 23t-2 15q1 8 6 14t11.5 8t13 0t10.5 -10q1 -2 3.5 -10t5 -17t4.5 -18t4 -13q6 4 14.5 11t18.5 13.5t18.5 12.5t14.5 8t11.5 0.5
t7.5 -5t1 -8t-7 -7.5q-5 -3 -17 -10t-24.5 -15.5t-21.5 -16t-9 -10.5q1 -4 3 -11.5t4 -13.5q7 -18 16 -24.5t19.5 -5.5t22 7t22.5 14t21.5 17t20 17.5t17 16l11.5 11.5q21 21 27 13.5t-11 -24.5q-12 -12 -30.5 -29t-39.5 -33.5t-43 -28.5t-41.5 -14.5t-35.5 8t-25 40.5z" />
    <glyph glyph-name="y" unicode="y" horiz-adv-x="328" 
d="M45 215q-17 -5 -28 -1t-17.5 14t-8 23t0.5 26q4 27 15.5 49t25.5 36q7 8 15.5 8.5t14.5 -4t8 -12.5t-2 -17q-5 -12 -11.5 -24.5t-11.5 -25.5q-5 -11 -7.5 -19.5t-1 -13t8.5 -3t22 9.5q45 26 84 57t80 58q12 8 22 2t4 -20q-4 -11 -10 -25t-12.5 -28.5t-12.5 -28.5t-9 -25
q26 17 56.5 35t61.5 29q15 5 19 -1.5t-6 -11.5q-14 -7 -32 -17t-37 -21.5t-36.5 -24t-30.5 -24.5q-9 -8 -16.5 -16.5t-13.5 -19.5q-17 -35 -37 -72.5t-43.5 -72t-50.5 -64.5t-57 -50q-9 -6 -20.5 -12t-22.5 -9t-21.5 -2t-19.5 10q-7 7 -8 16t1 17.5t6.5 16.5t8.5 15
q17 28 42 55t53 51.5t55.5 47t50.5 40.5q20 19 31 39q14 29 28.5 58.5t28.5 55.5q-21 -14 -40.5 -29t-38.5 -29t-39 -26.5t-41 -19.5zM95 116q-24 -19 -54.5 -46t-56 -54t-41 -49.5t-9.5 -32.5q16 5 40.5 26t48.5 48t44 56.5t28 51.5z" />
    <glyph glyph-name="z" unicode="z" horiz-adv-x="274" 
d="M80 273q-8 0 -22 -1t-18 1q-8 2 -9 9.5t6 9.5q4 1 11.5 2t15.5 2t15.5 1.5t12.5 0.5q6 0 14.5 6t16.5 15t15.5 19.5t12.5 19.5q-15 -2 -34 -9t-38 -16t-35.5 -18.5t-27.5 -16.5q-9 -6 -14.5 -3.5t-7.5 8.5t0 13.5t9 12.5q13 10 43 24.5t62.5 25.5t59.5 15t34 -8
q6 -10 3.5 -19t-7.5 -17q-8 -11 -18.5 -24.5t-18.5 -24.5q-2 -3 4 -3t14 -1q9 -1 10.5 -4t-0.5 -6.5t-7.5 -6t-9.5 -2.5q-8 -1 -16.5 -1t-16.5 -5q-7 -4 -15 -12t-15 -16.5t-13 -16.5t-9 -13q15 8 34.5 11t39 2t37 -6.5t28.5 -13.5q8 -6 9.5 -12.5t-1.5 -11t-10 -6t-15 2.5
q-19 9 -38 16t-41 5.5t-50 -14t-65 -42.5q-9 -3 -16 -1.5t-11 6t-4 11.5t6 15q21 28 45 50t45 47z" />
    <glyph glyph-name="D" unicode="D" horiz-adv-x="753" 
d="M231 274q11 1 21 1.5t16 -1.5t9 -6.5t2.5 -9.5t-4.5 -9t-11 -4q-23 -2 -32.5 -4t-11.5 -7q-5 -17 -14 -45t-14 -52q-6 -20 -19 -19q-10 1 -14 8t-4 17q0 4 2 17.5t4 27.5q3 17 6 37q-8 -2 -15 -4.5t-15 -5.5q-41 -18 -65 -45t-25.5 -52t22.5 -42t80 -15q54 3 117.5 25.5
t128 58.5t126.5 83t113.5 100t88.5 108.5t52 108.5q11 40 4.5 74t-30 57.5t-63.5 34.5t-95 7q-51 -4 -104.5 -20t-104.5 -39t-97.5 -52.5t-84.5 -60.5q-10 -8 -24.5 -22t-29.5 -31.5t-29 -37t-21.5 -38t-6.5 -34.5t14 -27q12 -11 9.5 -22t-19.5 -7q-18 5 -26 17.5t-10 29.5
q-2 28 9 57t29 56t39 50t38 39q35 31 82.5 62t102.5 56t113 42t114 22q50 4 97 -5t82.5 -31.5t55.5 -58t17 -83.5q-4 -63 -38 -128t-87.5 -126.5t-120.5 -115.5t-137.5 -96.5t-139 -69.5t-124.5 -33q-28 -4 -61.5 0t-62.5 16.5t-48 35t-16 55.5q2 26 20.5 50.5t45 44.5
t56 33.5t53.5 16.5q24 88 50.5 165t67.5 146q8 12 16 14.5t13 -1.5t6.5 -13t-2.5 -19q-10 -23 -24 -62t-28.5 -81t-26 -80t-17.5 -58z" />
    <glyph glyph-name="L" unicode="L" horiz-adv-x="515" 
d="M576 730q-74 -24 -144.5 -67t-131 -98.5t-106.5 -121t-70 -134.5q-4 -10 -5.5 -20t9.5 -19q5 -5 2.5 -11.5t-10.5 -8.5t-16.5 3.5t-10.5 16.5q-1 7 -1 14t2 14q31 91 86.5 166.5t124.5 137.5q27 24 60 50t69 49t74 41t76 26q25 5 41.5 -0.5t23 -18t3 -32t-18.5 -43.5
q-45 -80 -107 -164.5t-127 -164t-126.5 -147t-105.5 -112.5q33 3 68 1t70.5 -5.5t69.5 -8t65 -5.5q7 0 10 -1q12 -2 12 -16t-11 -16q-6 -1 -11.5 -1.5t-10.5 0.5q-41 3 -77 8t-68 8t-60.5 3.5t-55.5 -4.5q-29 -5 -49 -15t-35 -20.5t-26 -19.5t-21 -12q-20 -7 -32 13
q-6 9 -4 18t8 17t14.5 15t14.5 11q47 29 90 66t84 80q100 104 189 221.5t174 233.5q6 9 16.5 24t15 28.5t-0.5 20.5t-30 0z" />
    <glyph glyph-name="M" unicode="M" horiz-adv-x="1030" 
d="M601 516q-63 -44 -124.5 -98.5t-118.5 -114.5t-109 -124t-97 -127q-4 -5 -7.5 -9t-7.5 -8q-9 -7 -19 -6.5t-17.5 6.5t-11.5 15.5t0 19.5q5 23 17 46q40 78 88.5 148t99 137t101 133t95.5 135q6 10 12.5 23.5t7.5 24t-6 16t-28 -0.5q-67 -24 -131.5 -66.5t-121 -96.5
t-102.5 -116.5t-76 -125.5q-4 -9 -6.5 -18.5t-3.5 -18.5q-1 -18 9 -37q8 -15 2 -23t-16.5 -7t-20.5 12t-10 34q3 38 18 77q16 41 45 85.5t67 88t82 84t90 74t91.5 57.5t86.5 35q21 5 37 -1t25 -18.5t9.5 -30t-8.5 -35.5q-24 -53 -53.5 -101.5t-61 -94.5t-64 -90.5
t-63.5 -90.5q76 63 155 133t161 129q11 10 24.5 12.5t24 -1.5t16 -14t1.5 -26q-8 -30 -19.5 -57.5t-24 -54.5t-25.5 -53.5t-22 -53.5q-8 -24 -12 -48q36 23 81 70.5t97.5 103.5t112.5 112t125 97q35 22 64 29q19 3 28 -6t10.5 -23t-1.5 -30t-7 -26q-26 -69 -57 -132
t-61 -126q-37 -75 -64.5 -145.5t-49.5 -143.5q-3 -9 -5.5 -17.5t-4.5 -16.5q-3 -9 -13 -9q-12 0 -16.5 9.5t-3.5 22.5q0 12 1.5 24t3.5 24q13 63 36.5 123t49.5 117q37 81 78.5 158t76.5 155q-8 -4 -16 -7.5t-16 -8.5q-63 -36 -115.5 -84t-102.5 -99t-100.5 -102t-107.5 -93
q-14 -10 -25 -9.5t-18 8t-10 19.5t-1 25q11 58 36 111t50 105q9 19 7.5 24.5t-7.5 3.5t-15.5 -9t-17.5 -12z" />
    <glyph glyph-name="N" unicode="N" horiz-adv-x="696" 
d="M681 692q27 14 47 16t32.5 -4.5t19 -20.5t7.5 -31q0 -30 -11 -56.5t-25 -49.5q-11 -19 -24.5 -43.5t-28.5 -52.5t-30 -57.5t-30 -58.5q-33 -65 -56.5 -128.5t-19.5 -114.5q1 -15 6 -25.5t18 -11.5q10 -1 22 8q8 7 13 4t6 -10.5t-2 -16.5t-10 -15q-12 -10 -29 -12
q-15 -1 -25.5 5t-18.5 17q-22 30 -21 72.5t13 87t29.5 85t29.5 67.5q13 28 31.5 62.5t38 69.5t38 69t31.5 61.5t18.5 47t-1.5 25.5q-13 3 -40.5 -13t-63.5 -44.5t-78 -66t-84 -77t-82 -78t-71 -69.5q-57 -62 -101 -114t-89 -101q-5 -6 -11 -12l-14 -14q-14 -14 -28 -5
t-15 30q-1 14 2 27t8 25q31 74 69 144.5t77.5 139.5t79 137.5t73.5 139.5q-44 -20 -99.5 -59.5t-107 -89t-90.5 -102.5t-50 -99q-3 -12 -2 -23t-3 -16.5t-9 -6.5t-10.5 2.5t-7.5 11.5q-2 10 -0.5 22t5.5 26q18 57 56 111t86 101t101 85.5t101 66.5q29 17 46.5 12t24.5 -22
t4.5 -41.5t-14.5 -45.5q-31 -58 -71 -122.5t-81 -131t-78 -133t-62 -128.5q61 63 128 137.5t138 148.5t145 141.5t150 116.5z" />
    <glyph glyph-name="O" unicode="O" horiz-adv-x="493" 
d="M550 637q2 -37 -4.5 -71.5t-18.5 -66.5q-22 -60 -54 -117.5t-71.5 -110.5t-85 -100.5t-93.5 -87.5q-35 -28 -68.5 -49t-70.5 -23q-60 0 -79 64q-8 25 -7.5 50.5t5.5 51.5q11 55 33 99l45 90q5 11 5 18q-7 46 1.5 93.5t29.5 91.5t52 82t69 66q27 20 60 33t67 17.5t66 -0.5
t57.5 -20.5t42 -42.5t19.5 -67zM123 325q-11 -14 -28.5 -45.5t-31.5 -68.5t-19.5 -73.5t7.5 -60.5q10 -18 28 -20t38 4.5t38 17.5t28 19q103 80 185 183.5t126 218.5q12 31 19.5 62t9.5 64q-2 55 -30.5 80t-69 29.5t-85 -7.5t-76.5 -33t-60 -52t-49 -68t-32.5 -78t-9.5 -82
q10 19 28 41.5t40 45t46 43t47 35.5q24 15 43 17t32.5 -4t20 -16t3.5 -19q-2 -5 -9 -5t-13 -2q-33 -14 -65 -37t-59.5 -50t-49 -54.5t-34.5 -49.5q-3 -5 1 -14t11.5 -18t17.5 -16.5t18 -8.5q14 -6 9 -15t-19 -7q-21 3 -33.5 15.5t-22.5 28.5z" />
    <glyph glyph-name="P" unicode="P" horiz-adv-x="707" 
d="M65 142q-35 6 -53.5 27t-10.5 53q7 28 24.5 49.5t40.5 38t49 28t49 18.5q2 1 3 1t3 1t4 2.5t4 5.5q15 25 39 68.5t53 91.5t61 95t62 80q-24 -5 -61.5 -26t-75 -49t-68 -59t-39.5 -55q-3 -6 -7.5 -8.5t-7.5 -1.5q-5 1 -6 5t0 8.5t3 9t4 7.5q5 9 12.5 18.5t15.5 19.5
q57 60 119.5 100t135.5 65q47 15 96 23.5t95 8t86.5 -11t70.5 -32.5q30 -23 44 -56.5t8 -75.5t-35.5 -91t-87.5 -102q-60 -54 -129 -97t-142.5 -75t-148.5 -53t-147 -30q-10 -2 -10.5 -2t-2.5 -2q-5 -11 -11 -24.5t-12.5 -28t-13 -28t-12.5 -25.5q-6 -21 -19 -22
q-11 1 -14.5 8.5t-3.5 17.5t3 20.5l5 17.5q6 17 13.5 33t14.5 34zM145 186q67 5 143.5 28t151.5 58.5t142 80t117 92.5q74 73 84.5 137t-33.5 105q-27 24 -62 35.5t-73.5 13.5t-78 -2.5t-73.5 -13.5l-2 -2q-34 -47 -67.5 -98t-63 -99.5t-53.5 -90.5t-39 -70q29 0 59.5 -6
t54.5 -15q7 -3 8.5 -8t-0.5 -10t-8 -7t-14 1q-32 12 -58.5 14t-58.5 2q-4 0 -10 -13q-16 -32 -31 -61.5t-35 -70.5zM156 321q-18 -4 -37.5 -12.5t-37 -20.5t-30.5 -27.5t-17 -33.5q-3 -16 3.5 -27.5t35.5 -16.5q4 -1 8 -1t6 4q16 32 34.5 68t34.5 67z" />
    <glyph glyph-name="Q" unicode="Q" horiz-adv-x="531" 
d="M78 397q-20 49 -13.5 97.5t32 91t65 78.5t85.5 61q30 16 66 29t72.5 18t71.5 -1t62 -27q24 -19 37 -47t16.5 -61.5t-2.5 -70.5t-19 -74q-18 -50 -44 -100t-57 -96t-64.5 -86.5t-65.5 -72.5q20 -29 44 -44t51 -26q7 -4 8 -9.5t-1.5 -10.5t-8 -8t-12.5 0q-30 12 -58.5 32
t-45.5 44q-24 -21 -54 -45.5t-61.5 -41t-63.5 -20.5t-60 15q-20 13 -32 36.5t-17 50t-4.5 53.5t4.5 48q10 54 29 99t40 88zM99 436q10 20 24.5 43.5t31 45.5t34.5 40.5t35 30.5t31.5 11.5t22.5 -7.5t9.5 -16t-7.5 -14q-15 -9 -35 -29t-39.5 -45t-36 -50t-25.5 -43
q28 -15 54 -18t53 -5q16 -1 19 -7t2 -23q-4 -60 5 -112.5t26 -75.5q25 21 52.5 55t54.5 74q36 53 64.5 103t46.5 104q17 48 20.5 95.5t-12.5 82.5q-16 37 -47 50t-67 12t-72.5 -12.5t-62.5 -24.5q-45 -23 -83 -55t-63 -68t-35 -73t0 -69zM277 141q-15 30 -22.5 54t-11 47
t-3.5 47.5t1 54.5q-38 -2 -63 5t-52 18q-20 -39 -38.5 -81t-28.5 -86q-9 -41 -6.5 -74.5t17 -53t42.5 -21t72 21.5q30 16 55.5 35t37.5 33z" />
    <glyph glyph-name="R" unicode="R" horiz-adv-x="550" 
d="M234 270q34 -22 54.5 -54t40.5 -64q13 -21 28 -39.5t32.5 -32t37 -21.5t43.5 -7q3 0 6.5 0.5t6.5 -1.5q8 -4 9 -12.5t-6 -13.5q-4 -3 -8.5 -3.5t-9.5 -1.5q-53 -2 -91 25.5t-64 65.5q-16 23 -30.5 46.5t-30.5 43.5t-34.5 33.5t-42.5 16.5q-13 2 -23 0.5t-15 -14.5
q-12 -32 -27 -68.5t-29.5 -72.5t-27.5 -69.5t-22 -57.5q-3 -9 -9.5 -11.5t-12.5 -0.5t-10.5 8t-3.5 14q5 34 15 66.5t22 64.5t24.5 63.5t22.5 63.5q2 5 2 6t-1 1.5t-3 2t-5 7.5q-4 8 1 14t12 11q12 9 20 21q36 69 70.5 137t65.5 134q-22 -11 -47.5 -27.5t-49.5 -36
t-44.5 -39.5t-33.5 -37q-6 -8 -10 -15t-5 -13q0 -8 1 -12q-2 -11 -9.5 -15.5t-15.5 -3t-13.5 8t-2.5 17.5q5 18 14 31q22 30 53.5 59.5t68.5 56.5t76 51t75 44q54 28 118.5 57t132.5 49.5t135.5 27t128.5 -8.5q23 -6 44 -19.5t26 -36.5q6 -27 -16 -59.5t-54.5 -62.5t-66 -54
t-50.5 -35q-108 -72 -226.5 -125t-235.5 -103zM163 289q137 41 270.5 102t248.5 141q10 7 31.5 22t45 34.5t44.5 41t31.5 41t4.5 35t-36 23.5q-52 12 -113.5 5.5t-123.5 -24t-120 -41.5t-102 -45q-13 -5 -25 -15.5t-17 -22.5q-37 -78 -73 -150t-66 -147z" />
    <glyph glyph-name="S" unicode="S" horiz-adv-x="442" 
d="M109 373q47 9 92 17.5t91 13.5q21 2 41.5 0t36 -10t23.5 -22.5t5 -36.5q-8 -41 -33 -83t-59 -80t-71.5 -69.5t-69.5 -51.5q-30 -18 -60.5 -30.5t-62.5 -7.5q-22 3 -32.5 18t-8.5 36q4 23 18 45.5t34 41t43 33t44 22.5q19 7 29.5 4.5t10.5 -8.5q0 -9 -12 -13t-17 -7
q-41 -19 -73.5 -51.5t-44.5 -67.5q-5 -18 9 -20.5t33 3t37.5 13.5t23.5 11q37 20 75.5 51.5t71.5 67.5t55.5 73.5t28.5 70.5q1 18 -9.5 25.5t-26 9t-32 -1t-26.5 -4.5q-37 -8 -75.5 -17t-86.5 -20q-32 -7 -52 1t-28.5 25t-5 39.5t18.5 44.5q27 43 67.5 88.5t86.5 87.5
t94.5 76.5t93.5 54.5q13 6 31.5 12t37 8.5t35.5 -1.5t27 -18q7 -10 9 -22t0 -26q-5 -32 -18.5 -62t-32.5 -57t-41.5 -50.5t-44.5 -42.5q-8 -7 -15 -8.5t-10.5 1t-2.5 8.5t9 13q44 40 76 82t49 91q4 12 5 23.5t-2 20t-11.5 12.5t-24.5 1q-50 -14 -103 -49t-102 -80t-90.5 -94
t-67.5 -89q-19 -30 -16 -39t26 -6z" />
    <glyph glyph-name="T" unicode="T" 
d="M310 665q-51 -11 -98.5 -26t-95.5 -29q-20 -4 -29 0.5t-9 12.5t9 17t25 14q64 20 145.5 38t171.5 32t183.5 23.5t182.5 11.5q15 0 21.5 -5t5.5 -11.5t-9.5 -11.5t-23.5 -4q-14 1 -44.5 0t-69 -3t-82 -6t-83.5 -9t-73 -11.5t-50 -14.5q-6 -3 -12 -14q-37 -64 -80.5 -140.5
t-87 -159t-84 -167t-71.5 -165.5l-2 -6l-2 -6q-4 -11 -17.5 -12.5t-20.5 3.5q-6 4 -7.5 11t-1 15.5t3 16t4.5 12.5q31 84 69.5 164t78 154.5t79 143.5t74.5 132z" />
    <glyph glyph-name="U" unicode="U" horiz-adv-x="830" 
d="M436 651q-25 -11 -61.5 -29.5t-77 -42.5t-81.5 -51.5t-76 -57.5t-60.5 -61t-35.5 -60q-4 -12 5 -21q5 -5 3.5 -10t-6 -9t-11 -6t-11.5 0q-11 4 -14 13.5t-1.5 20t6 21t8.5 18.5q25 45 70.5 88t99 81.5t108 69.5t96.5 51q21 11 42.5 20.5t41.5 14.5q21 5 29 -0.5t8.5 -16
t-4.5 -22.5t-12 -20q-38 -44 -80.5 -88t-85.5 -90.5t-83 -96t-72 -104.5q-20 -33 -33.5 -66.5t-17.5 -60.5t1.5 -45t24.5 -21t52.5 13t83.5 56q77 61 160.5 139.5t169.5 161.5t173.5 164t171.5 149q37 30 46 16q8 -14 1.5 -25.5t-14.5 -23.5q-84 -121 -166.5 -241
t-151.5 -250q-23 -45 -42.5 -86.5t-33.5 -82.5q-3 -8 -8.5 -11.5t-11 -3.5t-10 3.5t-4.5 10.5q0 13 5 30q21 75 57.5 147t79.5 141t87.5 134.5t80.5 127.5q-68 -53 -126 -106t-114 -108t-113.5 -112t-124.5 -118q-21 -20 -43.5 -39t-45.5 -39q-59 -49 -102.5 -67t-71 -13
t-40.5 30t-11 61.5t17 81.5t44 91q31 51 66.5 95t72.5 84t74 77t72 75l13.5 13.5t8.5 10t-2.5 3t-19.5 -7.5z" />
    <glyph glyph-name="V" unicode="V" horiz-adv-x="421" 
d="M633 676q13 10 20.5 10.5t9.5 -4t-1 -12.5t-12 -14q-52 -42 -107 -98t-109.5 -118t-106 -125.5t-97 -119t-82.5 -99t-62 -65.5q-11 -10 -24.5 -15.5t-26 -5t-21.5 9t-11 27.5q-2 29 8.5 54t21.5 51q34 78 73 151t79 144.5t78.5 142t72.5 144.5q-36 -10 -72.5 -32.5
t-69.5 -53.5q-22 -20 -48.5 -51t-49.5 -66t-37.5 -71t-11.5 -66q2 -22 13 -36q5 -7 3.5 -12.5t-6 -8t-11 -1.5t-11.5 7q-15 20 -17 46q-3 36 10 74.5t36 76.5t54 74t64.5 65.5t67 51t61.5 32.5q22 8 35.5 3.5t19 -16.5t4 -28.5t-7.5 -32.5q-33 -77 -70 -154t-74.5 -153.5
t-72.5 -152.5t-64 -151q69 72 135 150.5t133.5 156t137 152t146.5 139.5z" />
    <glyph glyph-name="W" unicode="W" horiz-adv-x="603" 
d="M808 755q7 7 13 8.5t10 -1.5t4 -9t-5 -13q-106 -152 -209.5 -303t-219.5 -294q-11 -13 -23.5 -19.5t-23.5 -4.5t-18 13t-6 34q1 28 8.5 62t17.5 67.5t20 64t17 51.5q-43 -52 -81.5 -103t-76 -99.5t-75 -93t-78.5 -84.5q-26 -22 -44.5 -22t-28 13t-9.5 35t9 45
q21 52 50 109.5t61 115.5t66 114.5t65 108t57 95t44 75.5q-6 3 -21.5 0t-36.5 -12t-46.5 -24t-51.5 -36q-27 -21 -52 -46.5t-43.5 -52t-28.5 -51t-5 -42.5q3 -11 -1.5 -17.5t-11.5 -7t-13 6t-6 21.5q-1 27 13 58t38 61.5t55 59.5t63.5 52t64 38.5t56.5 19.5q30 6 43.5 -2.5
t17 -22t0 -28t-7.5 -21.5q-30 -54 -64 -113t-68 -119t-67 -118.5t-61 -112.5q-13 -26 -24.5 -50.5t-21.5 -48.5q-3 -7 -9 -20.5t-8.5 -23.5t2.5 -12t24 15t48.5 51.5t65 79.5t74.5 96.5t77.5 102.5t74.5 97.5t65 81.5q19 23 31 12q13 -10 -4 -36q-52 -100 -89 -203t-57 -205
q30 31 68 80.5t80 108t85 121t82 120t71.5 104t54.5 73.5z" />
    <glyph glyph-name="X" unicode="X" horiz-adv-x="492" 
d="M373 386q78 73 155.5 137t148.5 135q13 13 25 27t17.5 25t0.5 18t-27 6q-55 -3 -124 -24t-140 -52t-138 -68.5t-117 -73.5q-17 -12 -39 -29t-42 -36t-34 -39t-16 -37q-3 -23 -12.5 -29t-18.5 -1t-12 18.5t8 30.5q30 46 69.5 81t79.5 64q53 39 114 74t124.5 64.5
t126.5 51.5t120 35q12 3 31.5 6.5t39 4t35 -4.5t20.5 -20q5 -14 -1.5 -31.5t-18 -34.5t-24 -32t-20.5 -23q-86 -86 -168 -157.5t-156 -145.5q-1 -1 -1 -5q0 -29 3 -65t9 -72.5t16.5 -71.5t25.5 -60q7 -9 6 -17t-6 -12.5t-13.5 -3.5t-16.5 12q-17 28 -28.5 63.5t-18.5 72.5
t-10 71.5t-3 61.5q-73 -62 -142 -134t-134 -141q-22 -23 -34 -16q-9 6 -6 19t11 25q29 41 65 81t74 77.5t75 71.5t69 63q9 9 13 16.5t5 18.5q3 72 9 144q2 15 8.5 32.5t19.5 19.5q8 2 10 -2.5t1 -11.5q-5 -45 -7.5 -89t-6.5 -88z" />
    <glyph glyph-name="Y" unicode="Y" horiz-adv-x="589" 
d="M705 736q7 7 13.5 14.5t17.5 2.5q10 -5 8.5 -14.5t-5.5 -18.5q-18 -50 -45.5 -113t-63.5 -129.5t-77.5 -134t-87 -127t-93 -107t-93.5 -74.5q-27 -17 -49 -22.5t-37.5 -1.5t-24 15.5t-7.5 29.5q2 34 26 71t58 71t70.5 62t63.5 44q9 6 16.5 5t10.5 -6t1 -11.5t-11 -11.5
q-21 -12 -44.5 -30t-45.5 -38.5t-41.5 -42t-34.5 -41.5q-25 -35 -27.5 -48t9 -12.5t31.5 11t40 24.5q43 30 86.5 77.5t84.5 103.5t78 115.5t67 114t52.5 98t33.5 67.5q-40 -37 -89.5 -89.5t-104.5 -109t-114 -110.5t-118 -94q-10 -7 -23 -14.5t-26 -13t-25.5 -7t-21.5 4.5
q-11 7 -14.5 20t-2 29t8 34t14.5 36q20 44 44.5 85.5t51.5 81.5t54 78.5t53 76.5q-48 -35 -97 -76.5t-93 -87.5t-80 -95t-57 -98q-16 -37 -7 -60q4 -9 -2.5 -17t-15 -9.5t-15.5 5.5t-5 26q3 31 16 63t31.5 62.5t39.5 58t40 49.5q63 73 138 132.5t151 113.5q5 4 12 8.5
t14.5 7.5t15 3t12.5 -6q13 -14 3 -31q-8 -13 -17 -26t-18 -25q-61 -81 -110.5 -156.5t-92.5 -155.5q-11 -23 -19.5 -41.5t-8.5 -27.5t11 -6.5t40 23.5q26 19 61 49t74.5 66t82 76.5t83.5 80t78.5 76.5t67.5 67z" />
    <glyph glyph-name="Z" unicode="Z" horiz-adv-x="632" 
d="M337 399q-22 -5 -44 -8t-45 -5q-13 -1 -18.5 3.5t-4.5 11t7 12.5t17 7q28 4 57 5t55 9q11 3 15 5t13 11q19 21 41.5 46.5t46.5 51.5t47 51.5t42 46.5q21 24 30 39t8 22.5t-11 9.5t-26 0q-49 -6 -101.5 -23t-104.5 -42.5t-100.5 -59t-89 -73.5t-70.5 -85.5t-45 -93.5
q-4 -14 -10.5 -20t-11.5 -5t-7.5 7.5t0.5 18.5q20 74 76 142t129 122.5t153.5 91.5t150.5 50q42 8 76.5 3.5t50.5 -30.5q9 -15 1 -37t-24 -45q-35 -51 -76.5 -96t-79.5 -90q-2 -2 -3.5 -4.5t-3.5 -4.5q11 2 24 2.5t18 0.5q21 0 27.5 -5.5t3.5 -11.5t-12 -11.5t-20 -5.5
q-3 0 -14.5 -0.5t-24 -1.5t-23 -1.5t-12.5 -1.5q-5 -2 -8 -5q-35 -35 -73 -74t-76 -79t-75.5 -80t-70.5 -77q43 8 103 15t121.5 8.5t117.5 -3.5t91 -20q9 -2 12.5 -7.5t1.5 -10.5t-8 -8t-15 0q-49 12 -107 16t-117 1.5t-116 -11t-103 -22.5q-15 -5 -28 -11.5t-24 -19.5
q-8 -9 -18 -15.5t-24 -4.5q-14 1 -21 8t-8 16.5t2.5 19.5t10.5 17q40 41 85 87t88.5 91t83 86.5t68.5 74.5z" />
    <glyph glyph-name="zero" unicode="0" horiz-adv-x="485" 
d="M135 537q20 32 41.5 61t52.5 51q5 4 8.5 9.5t7.5 11.5q29 39 65.5 67.5t82.5 34.5q48 5 85 -22.5t48 -85.5q5 -33 2 -66t-11 -65q-15 -66 -44.5 -135t-69 -132.5t-86.5 -119t-98 -95.5q-23 -18 -47 -31t-50 -19q-42 -8 -67.5 12t-38.5 52q-22 55 -16.5 119t26 127.5
t50.5 122.5t59 103zM137 441q-16 -26 -31 -58t-27.5 -67.5t-21 -72t-9.5 -72.5q0 -16 1 -39.5t7.5 -43.5t20 -32t37.5 -6q40 10 79 40q53 39 101 94.5t86 119t65 130.5t38 129q4 30 3 63.5t-12.5 58.5t-35.5 35.5t-64 -5.5q-26 -11 -46.5 -29.5t-37.5 -40.5q-5 -7 -5 -10
q1 -25 -21 -29q-3 -1 -5.5 -5t-4.5 -7q-24 -38 -42.5 -77.5t-34.5 -81.5q-5 -14 -17.5 -16.5t-18.5 11.5z" />
    <glyph glyph-name="one" unicode="1" horiz-adv-x="317" 
d="M52 65q21 87 53.5 168.5t71.5 157.5t83.5 147.5t89.5 138.5q-73 -46 -136.5 -91.5t-129.5 -87.5q-12 -8 -20.5 -6.5t-11.5 8t-0.5 15.5t12.5 15q95 65 185 124t184 114q10 6 18 4t12.5 -8t5.5 -15t-3 -16q-115 -154 -202.5 -322t-163.5 -342q32 -2 57.5 -3.5t52.5 -12.5
q13 -5 11 -16t-18 -7q-58 13 -118.5 5t-112.5 -24q-8 -3 -14.5 0t-9 8t-1 11.5t9.5 10.5q22 14 50 17.5t45 6.5z" />
    <glyph glyph-name="two" unicode="2" horiz-adv-x="435" 
d="M87 92q60 9 106 3t81 -19q11 -4 21.5 -4t20.5 8q7 6 13 4.5t9 -7t3 -12.5t-5 -13q-15 -20 -42 -18q-28 1 -61.5 6t-67 7t-64 -3t-51.5 -24q-12 -10 -22.5 -8t-17.5 10.5t-9 20.5t3 22q2 6 6 11t8 11q49 73 103.5 140.5t111.5 133t114.5 130t112.5 132.5q25 32 35.5 54.5
t4.5 34t-30.5 10.5t-67.5 -16q-48 -16 -92 -47.5t-79 -66.5q-7 -7 -21 -22t-26.5 -32.5t-20.5 -34.5t-3 -27q3 -10 -2 -16t-12.5 -7.5t-15.5 2.5t-9 13q-5 25 7 49t24 43q26 39 67 75t88 63.5t97.5 44.5t96.5 18q24 1 37.5 -7t19 -21t3 -29.5t-11.5 -34.5q-18 -35 -40 -65.5
t-46 -58.5q-88 -103 -179.5 -209.5t-177.5 -214.5q-5 -7 -9.5 -13.5t-9.5 -15.5z" />
    <glyph glyph-name="three" unicode="3" horiz-adv-x="396" 
d="M212 332q36 2 62.5 -5.5t41.5 -23t17 -38.5t-11 -52q-26 -55 -73 -96t-98 -70q-24 -13 -48.5 -21.5t-50.5 -10.5q-9 0 -22.5 0.5t-25 4t-18.5 11t-4 21.5q2 12 11.5 18t19.5 0q17 -12 42 -8.5t52.5 17.5t55.5 35t51.5 43.5t40 43t21.5 34.5q12 27 1 41t-32 18t-45.5 -1.5
t-39.5 -17.5q-3 -3 -5.5 -6t-5.5 -5q-8 -5 -15 -4.5t-12 5t-7 11.5t2 15q2 7 11 14q79 83 156.5 159.5t145.5 161.5q55 64 37.5 93.5t-97.5 12.5q-45 -9 -85 -29t-74 -48t-62.5 -62.5t-50.5 -72.5q-6 -12 -17 -11q-8 2 -11.5 7t-0.5 13q24 48 59.5 89t77 72t86.5 51t88 27
q20 3 44 3.5t44 -5.5t32.5 -21.5t9.5 -44.5q-2 -27 -17.5 -54.5t-34.5 -51.5q-26 -34 -57.5 -67.5t-64 -66.5t-64.5 -65t-60 -63z" />
    <glyph glyph-name="nine" unicode="9" horiz-adv-x="356" 
d="M338 553q-17 -23 -43.5 -55t-56.5 -61.5t-60.5 -52t-57.5 -26.5q-27 -7 -44 7.5t-18 42.5q0 31 12 65.5t32 68.5t45.5 66.5t52.5 59.5q19 19 41.5 38.5t47.5 35t52 24.5t54 7q9 -1 16 -6.5t10.5 -13t2.5 -16t-7 -14.5q-2 -2 -7.5 -0.5t-10.5 1.5q-24 0 -49.5 -12.5
t-49.5 -30.5t-45 -38.5t-34 -36.5q-19 -21 -36.5 -46.5t-33 -53t-27.5 -56t-19 -55.5q15 -6 36.5 5.5t46 34.5t51.5 54t53.5 64t51 64.5t44.5 55.5q4 5 8 9.5t8 9.5q13 15 30 6t14 -29q-2 -9 -3.5 -18t-6.5 -18q-14 -34 -28.5 -68t-29.5 -68q-16 -35 -36.5 -80.5t-44.5 -94
t-51.5 -97t-58.5 -90.5t-65 -74t-70 -47q-20 -7 -34 -4t-22 13t-11 24.5t-1 31.5q2 10 7.5 14.5t12 4.5t12.5 -4.5t9 -11.5q1 -3 1 -7t2 -12q24 7 51.5 35.5t56.5 70t58 92t55 103t48.5 101.5t38.5 88z" />
    <glyph glyph-name="eight" unicode="8" horiz-adv-x="379" 
d="M282 304q29 -30 36.5 -62t0 -62.5t-28.5 -58.5t-48.5 -50t-59.5 -37t-62 -19q-44 -5 -77 9.5t-44 56.5q-7 39 3.5 82t31.5 85t47.5 78.5t50.5 62.5q8 8 12.5 16t5.5 20q1 32 18.5 70t45 76t62.5 74t72 63.5t74 44t68 16.5q16 -1 25 -8.5t12 -18.5t1 -23.5t-7 -23.5
q-40 -86 -95.5 -167t-106.5 -162q-10 -15 -18.5 -30.5t-18.5 -31.5zM162 351q-13 -15 -27.5 -34.5t-28 -42t-25.5 -46.5t-20 -47q-14 -41 -13 -68t15 -40t39.5 -11.5t61.5 16.5q30 14 53.5 33t37 41.5t14.5 48t-12 53.5q-19 2 -26 14t-15 26q-10 16 -25 28.5t-29 28.5z
M453 697q-11 2 -30.5 -8.5t-44 -30t-51 -45.5t-51 -55.5t-45 -60.5t-31.5 -61q26 -14 29 -30t-11 -42l11 -11l11 -11q54 91 107 178.5t106 176.5z" />
    <glyph glyph-name="seven" unicode="7" horiz-adv-x="419" 
d="M166 326q-16 -3 -37.5 -7.5t-33.5 -6.5q-19 -2 -20.5 10.5t15.5 17.5l22.5 5t27.5 5.5t26 5t20 3.5q2 0 4 2q19 23 47 60t63 81.5t75.5 93t83.5 93.5q12 12 21 22t8.5 15t-14 4t-47.5 -12q-30 -10 -67.5 -25t-76.5 -31.5t-76 -32t-65 -27.5q-5 -2 -11 -3t-11 1
q-12 4 -12.5 15.5t9.5 16.5q17 9 53 26.5t81.5 38t95 39.5t93 29.5t76.5 10t45 -19.5q10 -15 4 -28t-16 -25q-33 -42 -69 -83.5t-72 -82t-70 -81t-63 -80.5q26 2 56.5 4.5t51.5 5.5q10 1 16 -2.5t6.5 -9t-4.5 -11t-16 -6.5q-25 -3 -59 -7t-63 -10q-14 -3 -17.5 -6.5
t-11.5 -13.5q-56 -84 -103 -156t-94 -140q-7 -8 -15 -9.5t-14 1.5t-8.5 10.5t1.5 16.5q12 32 32 69.5t43 75t46.5 73.5t43.5 65z" />
    <glyph glyph-name="six" unicode="6" horiz-adv-x="419" 
d="M46 314q55 118 127 218t169 178q19 15 38.5 27.5t38.5 20.5q20 8 38 8.5t32 -10.5q7 -5 8 -12.5t-2 -14t-9 -10.5t-14 -2q-13 3 -32.5 -6.5t-38.5 -23t-34 -26.5t-19 -17q-80 -75 -143 -162t-105 -187q-9 -21 -19 -50t-17.5 -59.5t-8.5 -58.5t8 -47q9 -17 27 -18.5
t37.5 5.5t37.5 17t27 16q26 18 50.5 42t44.5 50.5t34.5 54.5t21.5 54q5 17 2.5 28.5t-19.5 9.5q-27 -3 -54.5 -15t-53.5 -29t-48.5 -37.5t-38.5 -39.5q-4 -4 -7 -8.5t-8 -6.5q-14 -5 -19 1.5t-3 17.5q1 5 4 8.5t5 7.5q18 22 46.5 48t60.5 48t65.5 35.5t62.5 10.5
q20 0 33 -12.5t15 -34.5q-3 -46 -21 -88.5t-45.5 -79.5t-62.5 -68t-71 -54q-19 -11 -38.5 -20t-42.5 -12q-35 -6 -60 9q-23 13 -33.5 35.5t-13 49.5t1.5 56.5t12 58t17 53t17 41.5z" />
    <glyph glyph-name="five" unicode="5" horiz-adv-x="346" 
d="M269 137q-20 -31 -44 -57t-49 -45q-31 -23 -61 -24.5t-54.5 12.5t-42 40t-23.5 59q-2 7 1.5 11.5t8.5 5.5t10 -1.5t7 -8.5q16 -47 38.5 -63t48.5 -11q20 3 41.5 17.5t42 36t38 48.5t29 55t16 55.5t-1.5 49.5q-11 40 -41 50t-64.5 1t-65 -31.5t-42.5 -47.5
q-5 -11 -12.5 -13t-14.5 2t-10 13t1 20q44 112 86 205t89 181q-38 41 15 50q61 11 120.5 20.5t116.5 6.5q14 -1 19.5 -7t4.5 -13t-7 -13t-14 -6q-40 -2 -83 -6t-102 -15q-14 -3 -21.5 -8.5t-12.5 -18.5q-35 -78 -67 -152.5t-67 -147.5q25 10 51.5 17t51 7t46.5 -7t38 -23
q23 -23 28 -56t-1 -67.5t-19.5 -66.5t-27.5 -54z" />
    <glyph glyph-name="four" unicode="4" horiz-adv-x="311" 
d="M191 282q-19 -1 -40.5 -2.5t-42.5 -4.5t-40.5 -9t-35.5 -16q-14 -4 -24.5 6.5t-3.5 24.5q37 63 76 123t78.5 118t79 115t77.5 115q11 16 20 19.5t14 -0.5t5.5 -13t-5.5 -18q-66 -109 -136 -218t-136 -213q29 7 57 9t56 2q10 0 15.5 3t10.5 12q26 47 53 93t54 93
q10 16 19 21.5t14.5 3t6.5 -11.5t-4 -23q-20 -43 -43 -90.5t-44 -90.5q-4 -7 -6.5 -14.5t1.5 -16.5q3 -6 0.5 -11t-10.5 -7l-10 -2.5t-4 -6.5q-12 -27 -27 -60.5t-28.5 -67.5t-24 -64t-11.5 -50q-3 -15 -15 -15q-8 -1 -12 3.5t-6 10.5q-3 9 -1 28q6 60 29 116.5t44 108.5z
" />
    <glyph glyph-name="at" unicode="@" horiz-adv-x="436" 
d="M192 230q-27 -22 -48.5 -37t-43.5 -24q-21 -9 -35 -6.5t-20.5 13t-6 25.5t7.5 31q13 28 41.5 59t63.5 58t71.5 47.5t64.5 27.5q18 5 27 1.5t11.5 -12t0 -20.5t-8.5 -24q-13 -24 -35 -50t-35 -46q-22 -33 -18 -40.5t20.5 -1t38 22.5t34.5 30q40 45 58 91.5t11 79.5
t-40.5 45.5t-97.5 -10.5q-44 -16 -86 -49t-75.5 -74.5t-56.5 -87.5t-27 -88q-2 -41 22.5 -62t61.5 -27.5t79.5 -0.5t76.5 18q20 9 29 8.5t10 -5.5t-4 -12t-13 -10q-51 -23 -106.5 -31t-100 3.5t-71 44t-18.5 89.5q5 37 20.5 74t38.5 71.5t53 65t65 54.5q32 22 70.5 39t76 23
t70 -2.5t51.5 -35.5q20 -31 11.5 -76.5t-35.5 -90.5t-66 -82.5t-79 -53.5q-30 -11 -46.5 1.5t-11.5 36.5zM100 210q13 6 30.5 19.5t36.5 30.5t38 35.5t34 36t25.5 31.5t13.5 22q-17 -3 -39 -16t-44.5 -31t-43.5 -38.5t-35 -38.5t-19.5 -32t3.5 -19z" />
    <glyph glyph-name="exclam" unicode="!" horiz-adv-x="251" 
d="M339 734q12 17 23 21t17 -0.5t6 -15.5t-9 -24q-29 -41 -67.5 -98.5t-79.5 -122t-81 -132t-73 -129.5q-7 -18 -15.5 -25t-15 -4.5t-8 12.5t4.5 25q30 68 70.5 140t82.5 138.5t80.5 122.5t64.5 92zM40 127q-2 -9 -9.5 -13.5t-15.5 -4t-13.5 5.5t-2.5 16q3 12 11.5 17.5
t16 4.5t12.5 -7.5t1 -18.5z" />
    <glyph glyph-name="question" unicode="?" horiz-adv-x="307" 
d="M139 501q-3 -16 -8.5 -22.5t-11.5 -6.5t-10 5t-4 12q2 59 31 103t70.5 71.5t88 38t83.5 2.5q29 -6 40 -21.5t9 -34t-13.5 -39t-27.5 -36.5q-29 -29 -60 -51.5t-62 -43.5t-61.5 -44t-57.5 -53t-50 -71t-40 -97q-11 -17 -23.5 -18t-17.5 18q8 54 31.5 98.5t55.5 81.5
t69 67.5t73 56.5t67 49.5t51 46.5t14 38.5t-28 21t-53.5 -0.5t-63 -26.5t-57 -56t-34.5 -88.5zM56 136q-2 -10 -10 -16t-18 -6q-11 0 -18.5 6t-5.5 15q2 11 11.5 18.5t21.5 6.5q10 0 15.5 -6.5t3.5 -17.5z" />
    <glyph glyph-name="dollar" unicode="$" horiz-adv-x="294" 
d="M305 608q16 -4 25.5 -16t9.5 -27t-10.5 -31t-34.5 -29q-8 -5 -14 1t-2 12q7 5 13 12t7.5 13.5t-2 12.5t-14.5 9q-4 -11 -14.5 -34t-22 -46t-19.5 -41t-7 -19q20 -15 31.5 -36.5t15.5 -46.5q3 -22 -0.5 -46t-13.5 -47t-25 -44.5t-34 -37.5q-22 -18 -48 -29t-58 -10
q-4 -1 -5.5 -0.5t-2 0t-1.5 -2t-3 -5.5q-5 -12 -14.5 -32.5t-17.5 -37.5q-11 -19 -22.5 -16t-5.5 22q8 17 15.5 35.5t15.5 38.5q-37 17 -45 48t3 68t35.5 74t51.5 66q7 7 13.5 8t11 -2t4.5 -8.5t-7 -11.5q-20 -17 -41 -47.5t-33 -62t-10 -59t28 -39.5q26 54 51 111t48 102
q5 10 3.5 15.5t-9.5 11.5q-43 29 -50 63.5t12 65.5t59 53t92 26q3 9 7.5 16.5t8.5 15.5t11.5 11.5t14.5 3t10.5 -5.5t0.5 -14q-2 -8 -5.5 -15.5t-6.5 -15.5zM246 569q-27 1 -49.5 -13.5t-34 -34.5t-7 -41.5t31.5 -34.5q16 30 31.5 63.5t27.5 60.5zM95 159q39 -2 68.5 24
t44.5 61.5t13.5 72t-24.5 55.5q-2 -5 -9.5 -21t-18.5 -38t-23 -47t-22.5 -47t-18.5 -38.5t-10 -21.5z" />
    <glyph glyph-name="sterling" unicode="&#xa3;" horiz-adv-x="331" 
 />
    <glyph glyph-name="Euro" unicode="&#x20ac;" horiz-adv-x="316" 
 />
    <glyph glyph-name="yen" unicode="&#xa5;" horiz-adv-x="403" 
 />
    <glyph glyph-name="plus" unicode="+" horiz-adv-x="172" 
d="M74 207q-5 -12 -11 -16t-10.5 -1.5t-6 10t1.5 16.5l9 29h-32q-12 0 -18 4.5t-6 10t6 10t20 4.5h40l13 38q4 11 10 15t11 2.5t7 -9t-2 -20.5l-9 -26h29q13 0 18.5 -4.5t4.5 -9.5t-7 -9t-16 -4q-10 -1 -19.5 -1.5t-19.5 -0.5q-7 -17 -13 -38z" />
    <glyph glyph-name="hyphen" unicode="-" horiz-adv-x="175" 
d="M127 274q13 0 18.5 -4.5t4.5 -9.5t-7 -9t-16 -4q-26 -2 -50.5 -1.5t-50.5 -0.5q-12 0 -18 4.5t-6 10t6 10t20 4.5q26 1 50 0.5t49 -0.5z" />
    <glyph glyph-name="multiply" unicode="&#xd7;" horiz-adv-x="164" 
 />
    <glyph glyph-name="divide" unicode="&#xf7;" horiz-adv-x="176" 
 />
    <glyph glyph-name="equal" unicode="=" horiz-adv-x="192" 
d="M140 300q13 0 18.5 -4.5t4.5 -9.5t-7 -9t-16 -4q-26 -2 -50.5 -1.5t-50.5 -0.5q-12 0 -18 4.5t-6 10t6 10t20 4.5q26 1 50 0.5t49 -0.5zM127 242q13 0 18.5 -4.5t4.5 -9.5t-7 -9t-16 -4q-26 -2 -50.5 -1.5t-50.5 -0.5q-12 0 -18 4.5t-6 10t6 10t20 4.5q26 1 50 0.5
t49 -0.5z" />
    <glyph glyph-name="underscore" unicode="_" horiz-adv-x="252" 
d="M167 160q13 0 18.5 -4.5t4.5 -9.5t-7 -9t-16 -4q-13 -1 -32 -1.5t-39.5 -0.5h-40h-32.5q-12 0 -18 4.5t-6 10t6 10t20 4.5h32h39.5h39.5h31z" />
    <glyph glyph-name="acute" unicode="&#xb4;" horiz-adv-x="130" 
 />
    <glyph glyph-name="grave" unicode="`" horiz-adv-x="139" 
d="M68 640q-13 14 -25.5 28.5t-25.5 28.5q-6 7 -5.5 14t5.5 10.5t11.5 3.5t12.5 -7q13 -14 25 -28t25 -28q8 -11 9 -19t-3 -12t-11.5 -2.5t-17.5 11.5z" />
    <glyph glyph-name="asciicircum" unicode="^" horiz-adv-x="155" 
d="M85 695q-5 -5 -13 -12.5t-16.5 -15t-16 -14t-11.5 -10.5q-18 -15 -23 -7t5 18q16 15 30.5 29.5t30.5 28.5q17 15 29.5 15.5t12.5 -15.5q0 -14 2.5 -28.5t5.5 -30.5q1 -8 -2 -13.5t-7.5 -8t-9.5 -1t-8 9.5q-5 13 -6 28.5t-3 26.5z" />
    <glyph glyph-name="tilde" unicode="&#x2dc;" horiz-adv-x="208" 
 />
    <glyph glyph-name="dieresis" unicode="&#xa8;" horiz-adv-x="168" 
 />
    <glyph glyph-name="Agrave" unicode="&#xc0;" horiz-adv-x="609" 
 />
    <glyph glyph-name="Aacute" unicode="&#xc1;" horiz-adv-x="609" 
 />
    <glyph glyph-name="circumflex" unicode="&#x2c6;" horiz-adv-x="155" 
 />
    <glyph glyph-name="Acircumflex" unicode="&#xc2;" horiz-adv-x="609" 
 />
    <glyph glyph-name="Atilde" unicode="&#xc3;" horiz-adv-x="609" 
 />
    <glyph glyph-name="Adieresis" unicode="&#xc4;" horiz-adv-x="609" 
 />
    <glyph glyph-name="Aring" unicode="&#xc5;" horiz-adv-x="609" 
 />
    <glyph glyph-name="agrave" unicode="&#xe0;" horiz-adv-x="299" 
 />
    <glyph glyph-name="aacute" unicode="&#xe1;" horiz-adv-x="299" 
 />
    <glyph glyph-name="acircumflex" unicode="&#xe2;" horiz-adv-x="299" 
 />
    <glyph glyph-name="atilde" unicode="&#xe3;" horiz-adv-x="299" 
 />
    <glyph glyph-name="adieresis" unicode="&#xe4;" horiz-adv-x="299" 
 />
    <glyph glyph-name="aring" unicode="&#xe5;" horiz-adv-x="299" 
 />
    <glyph glyph-name="comma" unicode="," horiz-adv-x="159" 
d="M45 151q-14 -11 -23.5 -5t-3.5 18q11 11 12.5 19t1.5 15q0 6 0.5 12t2.5 11q4 9 12.5 11.5t16 0.5t12.5 -8t4 -16q-2 -17 -12.5 -32.5t-22.5 -25.5z" />
    <glyph glyph-name="period" unicode="." horiz-adv-x="120" 
d="M49 216q11 0 16 -7t5 -15t-5 -15t-15 -7q-11 -1 -16.5 6t-6 15.5t5 15.5t16.5 7z" />
    <glyph glyph-name="ellipsis" unicode="&#x2026;" horiz-adv-x="269" 
 />
    <glyph glyph-name="quotedblbase" unicode="&#x201e;" horiz-adv-x="263" 
 />
    <glyph glyph-name="Ccedilla" unicode="&#xc7;" horiz-adv-x="502" 
 />
    <glyph glyph-name="ccedilla" unicode="&#xe7;" horiz-adv-x="288" 
 />
    <glyph glyph-name="AE" unicode="&#xc6;" horiz-adv-x="1032" 
 />
    <glyph glyph-name="OE" unicode="&#x152;" horiz-adv-x="902" 
 />
    <glyph glyph-name="ae" unicode="&#xe6;" horiz-adv-x="371" 
 />
    <glyph glyph-name="oe" unicode="&#x153;" horiz-adv-x="377" 
 />
    <glyph glyph-name="Egrave" unicode="&#xc8;" horiz-adv-x="559" 
 />
    <glyph glyph-name="Eacute" unicode="&#xc9;" horiz-adv-x="559" 
 />
    <glyph glyph-name="Ecircumflex" unicode="&#xca;" horiz-adv-x="559" 
 />
    <glyph glyph-name="Edieresis" unicode="&#xcb;" horiz-adv-x="559" 
 />
    <glyph glyph-name="egrave" unicode="&#xe8;" horiz-adv-x="237" 
 />
    <glyph glyph-name="eacute" unicode="&#xe9;" horiz-adv-x="237" 
 />
    <glyph glyph-name="ecircumflex" unicode="&#xea;" horiz-adv-x="237" 
 />
    <glyph glyph-name="edieresis" unicode="&#xeb;" horiz-adv-x="237" 
 />
    <glyph glyph-name="backslash" unicode="\" horiz-adv-x="258" 
 />
    <glyph glyph-name="slash" unicode="/" horiz-adv-x="214" 
d="M30 162q-6 -10 -13 -12.5t-11.5 0.5t-4.5 10t6 16q42 66 82 130.5l80 129t80.5 129t82.5 131.5q7 11 14 14t11.5 0t5 -10t-5.5 -16q-83 -135 -161 -262.5t-166 -259.5z" />
    <glyph glyph-name="bar" unicode="|" horiz-adv-x="146" 
d="M1 163q39 144 81 278t88 276q3 10 9 14t11.5 3t8.5 -7.5t-1 -18.5q-43 -142 -85 -276.5t-84 -275.5q-2 -10 -8 -14t-11.5 -3t-8.5 7t0 17z" />
    <glyph glyph-name="Oslash" unicode="&#xd8;" horiz-adv-x="493" 
 />
    <glyph glyph-name="oslash" unicode="&#xf8;" 
 />
    <glyph glyph-name="Ograve" unicode="&#xd2;" horiz-adv-x="493" 
 />
    <glyph glyph-name="Oacute" unicode="&#xd3;" horiz-adv-x="493" 
 />
    <glyph glyph-name="Ocircumflex" unicode="&#xd4;" horiz-adv-x="493" 
 />
    <glyph glyph-name="Otilde" unicode="&#xd5;" horiz-adv-x="493" 
 />
    <glyph glyph-name="Odieresis" unicode="&#xd6;" horiz-adv-x="493" 
 />
    <glyph glyph-name="odieresis" unicode="&#xf6;" 
 />
    <glyph glyph-name="otilde" unicode="&#xf5;" 
 />
    <glyph glyph-name="oacute" unicode="&#xf3;" 
 />
    <glyph glyph-name="ograve" unicode="&#xf2;" 
 />
    <glyph glyph-name="ocircumflex" unicode="&#xf4;" 
 />
    <glyph glyph-name="Ugrave" unicode="&#xd9;" horiz-adv-x="830" 
 />
    <glyph glyph-name="Uacute" unicode="&#xda;" horiz-adv-x="830" 
 />
    <glyph glyph-name="Ucircumflex" unicode="&#xdb;" horiz-adv-x="830" 
 />
    <glyph glyph-name="Udieresis" unicode="&#xdc;" horiz-adv-x="830" 
 />
    <glyph glyph-name="Yacute" unicode="&#xdd;" horiz-adv-x="589" 
 />
    <glyph glyph-name="ugrave" unicode="&#xf9;" horiz-adv-x="346" 
 />
    <glyph glyph-name="uacute" unicode="&#xfa;" horiz-adv-x="346" 
 />
    <glyph glyph-name="ucircumflex" unicode="&#xfb;" horiz-adv-x="346" 
 />
    <glyph glyph-name="udieresis" unicode="&#xfc;" horiz-adv-x="346" 
 />
    <glyph glyph-name="yacute" unicode="&#xfd;" horiz-adv-x="328" 
 />
    <glyph glyph-name="ydieresis" unicode="&#xff;" horiz-adv-x="328" 
 />
    <glyph glyph-name="Ydieresis" unicode="&#x178;" horiz-adv-x="589" 
 />
    <glyph glyph-name="Igrave" unicode="&#xcc;" horiz-adv-x="337" 
 />
    <glyph glyph-name="Iacute" unicode="&#xcd;" horiz-adv-x="337" 
 />
    <glyph glyph-name="Icircumflex" unicode="&#xce;" horiz-adv-x="337" 
 />
    <glyph glyph-name="Idieresis" unicode="&#xcf;" horiz-adv-x="337" 
 />
    <glyph glyph-name="Eth" unicode="&#xd0;" horiz-adv-x="753" 
 />
    <glyph glyph-name="Ntilde" unicode="&#xd1;" horiz-adv-x="696" 
 />
    <glyph glyph-name="ntilde" unicode="&#xf1;" horiz-adv-x="378" 
 />
    <glyph glyph-name="idieresis" unicode="&#xef;" horiz-adv-x="205" 
 />
    <glyph glyph-name="icircumflex" unicode="&#xee;" horiz-adv-x="205" 
 />
    <glyph glyph-name="iacute" unicode="&#xed;" horiz-adv-x="205" 
 />
    <glyph glyph-name="igrave" unicode="&#xec;" horiz-adv-x="205" 
 />
    <glyph glyph-name="cent" unicode="&#xa2;" horiz-adv-x="288" 
 />
    <glyph glyph-name="eth" unicode="&#xf0;" horiz-adv-x="356" 
 />
    <glyph glyph-name="ampersand" unicode="&#x26;" horiz-adv-x="467" 
d="M392 75q6 -5 6 -11t-4.5 -10.5t-11.5 -5t-13 4.5q-21 17 -40.5 33t-38.5 39q-38 -28 -81 -48t-84 -30q-34 -8 -59 -5t-41 14t-24 28t-8 38q0 26 13.5 57t40.5 60q30 33 70 58t80 51q0 10 -0.5 20.5t0.5 21.5q2 39 18 81t45 79q18 23 44 45.5t55 37.5t58.5 21t56.5 -4
q18 -6 29.5 -20t11.5 -35q0 -20 -7.5 -40.5t-20.5 -40t-29.5 -37.5t-33.5 -31q-42 -35 -92.5 -65t-98.5 -60q7 -38 26.5 -80.5t43.5 -74.5q10 9 21 19t21 20l19 19l15 15q7 9 15 10t12.5 -2.5t5 -10.5t-7.5 -15q-15 -18 -40.5 -40.5t-45.5 -38.5q17 -20 35.5 -36t38.5 -31z
M227 367q48 29 103 61t97 70q28 27 41 50.5t12 40.5t-15 26t-39 6q-25 -2 -47.5 -12.5t-42.5 -26.5q-18 -15 -37 -39t-34.5 -52.5t-26 -60.5t-11.5 -63zM38 135q-1 -32 14 -45.5t39 -14t53 8.5t56 21.5t48 25t29 18.5q-23 32 -45 75.5t-31 82.5q-20 -13 -43 -27t-44 -31
q-13 -10 -26.5 -22t-24 -26t-17.5 -30.5t-8 -35.5z" />
    <glyph glyph-name="percent" unicode="%" horiz-adv-x="510" 
d="M293 679q0 -1 -1 -1q6 3 14 3q13 0 26.5 -1.5t36.5 -1.5q43 0 86.5 6t87.5 13q6 0 8 -1q7 2 13 0.5t10 -5.5t3.5 -10t-7.5 -12q-99 -94 -188.5 -187t-173.5 -195q-25 -30 -48.5 -58t-46 -57.5t-44 -62t-43.5 -70.5q-8 -13 -21 -13t-18 15q0 21 11.5 47t29 52.5t37 51.5
t34.5 43q88 111 195.5 217t221.5 215q-34 -5 -68.5 -9t-68.5 -6q10 -12 11 -29t-12 -39q-11 -20 -30 -36.5t-42 -30.5t-55.5 -23.5t-61 -7.5t-46.5 20t-11 60q4 21 17 42t31.5 40t40.5 35t45 28q17 9 24 -3.5t3 -28.5zM289 209q6 2 11 0.5t6 -6.5q43 -13 53 -34.5
t-1.5 -44.5t-38.5 -45t-58 -37q-19 -9 -39 -12t-35.5 1.5t-23.5 16.5t-4 34q4 25 21.5 47.5t40.5 40.5q-5 3 -5.5 9.5t7.5 12.5q14 9 29 12.5t31 2.5zM295 642q-11 0 -14 7.5t0 15.5q-17 -10 -27 -2q-19 -12 -28 -21.5t-21 -27.5q-22 -32 -19.5 -49.5t18.5 -23.5t40.5 -2.5
t48.5 14.5q20 10 34.5 23t18.5 30q3 12 -1.5 19t-12.5 10.5t-18 5t-19 1.5zM254 69q24 8 46 23.5t31 32t-0.5 31.5t-48.5 24q-22 -10 -34.5 -19t-28.5 -29q-11 -15 -15 -29t-0.5 -24t16 -13.5t34.5 3.5z" />
    <glyph glyph-name="germandbls" unicode="&#xdf;" horiz-adv-x="375" 
 />
    <glyph glyph-name="parenleft" unicode="(" horiz-adv-x="165" 
d="M369 706q-60 -34 -111.5 -82t-92.5 -104t-70 -117.5t-44.5 -122t-16 -118.5t16.5 -107q8 -10 6.5 -19.5t-7 -15t-13 -5t-11.5 10.5q-29 66 -27.5 139.5t24 145.5t62 140t86 124t96.5 97t94 60q26 11 30 0t-22 -26z" />
    <glyph glyph-name="braceleft" unicode="{" horiz-adv-x="239" 
d="M325 653q-28 -43 -49.5 -91t-45.5 -90t-56.5 -73.5t-83.5 -40.5q31 -21 34 -52t-8.5 -66.5t-31 -71.5t-34.5 -68q-17 -41 -16 -69t24 -30q16 -2 22.5 -7.5t5 -11t-11 -9t-24.5 -1.5q-27 4 -39.5 18t-15 33t2.5 42t13.5 45.5t18 43t15.5 35.5q14 32 22.5 54.5t8.5 39.5
t-10.5 31.5t-35.5 30.5q-6 6 -7 12.5t2 12t8.5 9.5t11.5 4q47 2 81.5 28.5t62 67t50.5 88.5t49 92q10 18 24 38.5t31.5 37t36.5 26.5t40 7q25 -5 27 -26q4 -24 -6 -26.5t-23 10.5q-11 8 -25 0.5t-27 -21t-24 -29t-17 -23.5z" />
    <glyph glyph-name="bracketleft" unicode="[" horiz-adv-x="259" 
 />
    <glyph glyph-name="less" unicode="&#x3c;" horiz-adv-x="244" 
 />
    <glyph glyph-name="bracketright" unicode="]" horiz-adv-x="256" 
 />
    <glyph glyph-name="braceright" unicode="}" horiz-adv-x="328" 
d="M270 653q2 8 6 23.5t5 29t-5.5 21t-25.5 -0.5q-26 -13 -34 -10.5t19 26.5q11 10 25.5 17t28.5 9q23 3 33 -7t10.5 -26.5t-5.5 -37t-14 -38.5q-12 -30 -27.5 -61.5t-28.5 -61.5t-22 -57.5t-8 -48t14 -33.5t44 -14q12 -1 6 -14t-29 -24q-41 -16 -65.5 -30.5t-41.5 -31.5
t-30.5 -39.5t-31.5 -54.5q-12 -22 -30 -56.5t-44 -68t-61 -60t-81 -32.5q-17 -2 -22.5 1.5t-1.5 9t16 11t29 7.5q23 2 51 30t52 69q16 32 32.5 68t39.5 71.5t56.5 66.5t85.5 52q-28 6 -37 22.5t-6 40t15.5 52t27.5 59t30.5 61.5t24.5 60z" />
    <glyph glyph-name="parenright" unicode=")" horiz-adv-x="204" 
d="M104 706q-7 7 -6.5 14.5t5.5 12t13 5t17 -5.5q29 -18 46.5 -59.5t19 -97.5t-13 -124t-50 -140t-92 -145.5t-138.5 -139.5q-12 -10 -19.5 -10.5t-9 5t4.5 15t22 19.5q56 49 101.5 107t79 118.5t53 122t23 117.5t-9.5 104t-46 82z" />
    <glyph glyph-name="greater" unicode="&#x3e;" horiz-adv-x="224" 
 />
    <glyph glyph-name="exclamdown" unicode="&#xa1;" horiz-adv-x="247" 
 />
    <glyph glyph-name="asterisk" unicode="*" horiz-adv-x="194" 
 />
    <glyph glyph-name="asciitilde" unicode="~" horiz-adv-x="237" 
d="M33 250q-16 -15 -23 -8t4 22q20 28 45 35t42 -21q5 -10 12 -12t15.5 0.5t18 7.5t20.5 10q20 10 22.5 0.5t-13.5 -18.5q-22 -13 -37 -19t-26.5 -5.5t-21.5 7.5t-21 20q-5 6 -14 0.5t-23 -19.5z" />
    <glyph glyph-name="numbersign" unicode="#" horiz-adv-x="344" 
 />
    <glyph glyph-name="questiondown" unicode="&#xbf;" horiz-adv-x="440" 
 />
    <glyph glyph-name="colon" unicode=":" horiz-adv-x="180" 
d="M97 326q11 0 16 -7t5 -15t-5 -15t-15 -7q-11 -1 -16.5 6t-6 15.5t5 15.5t16.5 7zM61 237q11 0 16 -7t5 -15t-5 -15t-15 -7q-11 -1 -16.5 6t-6 15.5t5 15.5t16.5 7z" />
    <glyph glyph-name="semicolon" unicode=";" horiz-adv-x="180" 
d="M97 326q11 0 16 -7t5 -15t-5 -15t-15 -7q-11 -1 -16.5 6t-6 15.5t5 15.5t16.5 7zM55 151q-14 -11 -23.5 -5t-3.5 18q11 11 12.5 19t1.5 15q0 6 0.5 12t2.5 11q4 9 12.5 11.5t16 0.5t12.5 -8t4 -16q-2 -17 -12.5 -32.5t-22.5 -25.5z" />
    <glyph glyph-name="quotesingle" unicode="'" horiz-adv-x="238" 
 />
    <glyph glyph-name="quotedbl" unicode="&#x22;" horiz-adv-x="321" 
 />
    <glyph glyph-name="quotedblleft" unicode="&#x201c;" horiz-adv-x="321" 
 />
    <glyph glyph-name="quotedblright" unicode="&#x201d;" horiz-adv-x="321" 
 />
    <glyph glyph-name="quoteright" unicode="&#x2019;" horiz-adv-x="238" 
 />
    <glyph glyph-name="quoteleft" unicode="&#x2018;" horiz-adv-x="238" 
 />
    <glyph glyph-name="A" unicode="A" horiz-adv-x="609" 
d="M285 356q-12 8 -29 19t-29 18q-8 7 -5.5 15.5t14.5 6.5q20 -8 37 -19t29 -19q12 9 36 38.5t53.5 68t59.5 80.5t53 77q25 37 31.5 53.5t-1 19.5t-26.5 -5.5t-44 -21.5q-57 -30 -121.5 -75t-124.5 -98t-109.5 -111t-76.5 -114q-8 -16 -10 -28t5 -19q5 -3 10 -7t1 -12
q-3 -5 -10.5 -7.5t-15.5 4.5q-11 15 -9 35t11 41q30 66 86.5 132.5t125 125t141.5 105t135 73.5q35 13 52.5 11.5t21.5 -13.5t-3.5 -31.5t-22.5 -41.5q-32 -46 -60.5 -88.5t-60.5 -80.5q76 67 158.5 130t162.5 127q5 3 8.5 5t8.5 4q14 7 22 -2.5t4 -22.5q-2 -8 -7 -14.5
t-10 -13.5q-36 -48 -69 -98.5t-62 -102.5q-30 -55 -56 -108.5t-48.5 -107.5t-41.5 -110t-36 -116q-3 -11 -7 -21.5t-9 -19.5q-6 -12 -19 -8q-6 3 -8.5 7.5t-3 10.5t0.5 11.5t2 10.5q7 29 13.5 53t3.5 47q-11 51 -34.5 93.5t-63.5 75.5q-49 -55 -92 -107t-79 -106
q-9 -12 -19 -13t-16.5 4.5t-9 16t2.5 21.5q13 28 33 57.5t42.5 58.5t44.5 56t40 50zM457 197q49 127 114.5 240t132.5 225q-15 -10 -44.5 -35t-66.5 -58t-76.5 -69.5t-73.5 -69t-58 -57.5t-30 -34q18 -12 34 -30.5t29 -38.5t23 -39t16 -34z" />
    <glyph glyph-name="B" unicode="B" horiz-adv-x="791" 
d="M319 557q-24 -10 -50.5 -30t-48.5 -42.5t-34.5 -45t-8.5 -37.5q2 -9 -3 -13t-12 -3.5t-13 5.5t-6 16t4 23.5t7 19.5q17 33 45.5 63t63.5 56q35 25 80 51.5t96 49.5t105.5 42.5t107.5 31.5t103 15t92 -6q54 -13 68.5 -48.5t-8.5 -81.5q-11 -21 -26.5 -40.5t-29.5 -33.5
q-37 -36 -84.5 -67t-97 -57.5t-97.5 -48.5t-86 -39q21 0 58 -1t74 -8.5t64.5 -25t29.5 -49.5q0 -18 -10 -36.5t-25 -35.5q-41 -47 -98 -77.5t-121.5 -48t-130 -24t-122.5 -6.5q-10 0 -13 -1.5t-11 -9.5q-4 -6 -10.5 -5.5t-11.5 6.5q-3 5 -6.5 6t-7.5 3q-17 5 -34 6t-34 1
t-34.5 0.5t-34.5 5.5q-20 5 -21 18t8 19q7 4 13 3t12 -1q10 0 33 -1t46.5 -1t42 0.5t20.5 3.5q8 13 20 49t26 83.5t29.5 101.5t30 102.5t28 87t23.5 55.5zM205 78q49 1 112.5 10.5t126 27t115.5 43.5t83 62q25 29 8 50t-81 30q-25 3 -51.5 3t-53 -1t-51 -2.5t-45.5 -1.5
q-15 0 -21 2.5t-8 10.5q0 12 8 15t15 7q62 19 126 42t125 52t116.5 64.5t100.5 77.5q28 26 39.5 52t6.5 46.5t-27 33.5t-61 15q-32 2 -72 -4t-83 -17.5t-85.5 -27t-79.5 -31.5t-67 -31.5t-46 -27.5q-32 -125 -72.5 -251.5t-77.5 -248.5z" />
    <glyph glyph-name="C" unicode="C" horiz-adv-x="502" 
d="M272 100q26 18 57.5 43t62.5 53t60 55t51 49q12 11 19 13t9 -2t-0.5 -12t-9.5 -16q-24 -24 -55 -54.5t-64 -60.5t-66 -58t-61 -47q-23 -16 -48 -29t-51.5 -19.5t-53.5 -5t-53 13.5q-33 16 -49 46t-20 67t2.5 76t18.5 73q23 65 63.5 129.5t91 122.5t108 105.5t114.5 79.5
q62 35 110.5 41.5t75 -13t26.5 -64t-34 -112.5q-29 -57 -69.5 -104.5t-83.5 -95.5q-12 -12 -20 -13.5t-11.5 2.5t-2 12t7.5 14q49 50 87.5 95.5t67.5 101.5q27 54 30 89t-14 50t-52.5 7.5t-86.5 -38.5q-54 -32 -108 -81t-101 -107t-84 -120t-58 -118q-11 -28 -17 -57
t-5.5 -55t8 -48t22.5 -36q21 -19 46 -21.5t50 4.5t48.5 20t41.5 25z" />
  </font>
</defs>
</svg>
